<svg viewBox="0 0 1080 1080" xmlns="http://www.w3.org/2000/svg"><g fill="#ff0"><path d="m694.29 379.69a32.13 32.13 0 1 0 -43.06 14.51 32.12 32.12 0 0 0 43.06-14.51z"/><path d="m610.63 336a32.14 32.14 0 1 0 -43.07 14.52 32.15 32.15 0 0 0 43.07-14.52z"/><path d="m527 292.39a32.14 32.14 0 1 0 -43.07 14.52 32.15 32.15 0 0 0 43.07-14.52z"/><path d="m945.29 510.63a32.13 32.13 0 1 0 -43.07 14.52 32.14 32.14 0 0 0 43.07-14.52z"/><path d="m1029 554.27a32.14 32.14 0 1 0 -43.07 14.52 32.13 32.13 0 0 0 43.07-14.52z"/><path d="m861.62 467a32.13 32.13 0 1 0 -43.06 14.52 32.14 32.14 0 0 0 43.06-14.52z"/><path d="m778 423.33a32.14 32.14 0 1 0 -43.07 14.52 32.13 32.13 0 0 0 43.07-14.52z"/><path d="m443.29 248.75a32.13 32.13 0 1 0 -43.06 14.51 32.12 32.12 0 0 0 43.06-14.51z"/><path d="m359.63 205.1a32.14 32.14 0 1 0 -43.07 14.52 32.14 32.14 0 0 0 43.07-14.52z"/><path d="m276 161.45a32.13 32.13 0 1 0 -43.11 14.55 32.15 32.15 0 0 0 43.11-14.55z"/><path d="m192.29 117.8a32.13 32.13 0 1 0 -43.06 14.52 32.12 32.12 0 0 0 43.06-14.52z"/><path d="m108.63 74.16a32.14 32.14 0 1 0 -43.07 14.51 32.14 32.14 0 0 0 43.07-14.51z"/><path d="m694.29 700.31a32.13 32.13 0 1 1 -43.06-14.51 32.12 32.12 0 0 1 43.06 14.51z"/><path d="m610.63 744a32.14 32.14 0 1 1 -43.07-14.52 32.15 32.15 0 0 1 43.07 14.52z"/><path d="m527 787.61a32.14 32.14 0 1 1 -43.07-14.52 32.15 32.15 0 0 1 43.07 14.52z"/><path d="m945.29 569.37a32.13 32.13 0 1 1 -43.07-14.52 32.14 32.14 0 0 1 43.07 14.52z"/><path d="m1029 525.73a32.14 32.14 0 1 1 -43.07-14.52 32.13 32.13 0 0 1 43.07 14.52z"/><path d="m861.62 613a32.13 32.13 0 1 1 -43.06-14.52 32.14 32.14 0 0 1 43.06 14.52z"/><path d="m778 656.67a32.14 32.14 0 1 1 -43.07-14.52 32.13 32.13 0 0 1 43.07 14.52z"/><path d="m443.29 831.25a32.13 32.13 0 1 1 -43.06-14.51 32.12 32.12 0 0 1 43.06 14.51z"/><path d="m359.63 874.9a32.14 32.14 0 1 1 -43.07-14.52 32.14 32.14 0 0 1 43.07 14.52z"/><path d="m276 918.55a32.13 32.13 0 1 1 -43.11-14.55 32.15 32.15 0 0 1 43.11 14.55z"/><path d="m192.29 962.2a32.13 32.13 0 1 1 -43.06-14.52 32.12 32.12 0 0 1 43.06 14.52z"/><path d="m108.63 1005.84a32.14 32.14 0 1 1 -43.07-14.51 32.14 32.14 0 0 1 43.07 14.51z"/></g></svg>