<svg viewBox="0 0 1500 1500" xmlns="http://www.w3.org/2000/svg"><g fill="#ff0"><circle cx="58.91" cy="58.91" r="58.91"/><circle cx="404.45" cy="58.91" r="58.91"/><circle cx="750" cy="58.91" r="58.91"/><circle cx="1095.55" cy="58.91" r="58.91"/><circle cx="1441.09" cy="58.91" r="58.91"/><circle cx="58.91" cy="404.45" r="58.91"/><circle cx="404.45" cy="404.45" r="58.91"/><circle cx="750" cy="404.45" r="58.91"/><circle cx="1095.55" cy="404.45" r="58.91"/><circle cx="1441.09" cy="404.45" r="58.91"/><circle cx="58.91" cy="750" r="58.91"/><circle cx="404.45" cy="750" r="58.91"/><circle cx="750" cy="750" r="58.91"/><circle cx="1095.55" cy="750" r="58.91"/><circle cx="1441.09" cy="750" r="58.91"/><circle cx="58.91" cy="1095.55" r="58.91"/><circle cx="404.45" cy="1095.55" r="58.91"/><circle cx="750" cy="1095.55" r="58.91"/><circle cx="1095.55" cy="1095.55" r="58.91"/><circle cx="1441.09" cy="1095.55" r="58.91"/><circle cx="58.91" cy="1441.09" r="58.91"/><circle cx="404.45" cy="1441.09" r="58.91"/><circle cx="750" cy="1441.09" r="58.91"/><circle cx="1095.55" cy="1441.09" r="58.91"/><circle cx="1441.09" cy="1441.09" r="58.91"/></g></svg>