<svg viewBox="0 0 1500 1500" xmlns="http://www.w3.org/2000/svg"><g fill="#ff0"><path d="m-.65-.65h117.92v117.92h-117.92z"/><path d="m345.19-.65h117.92v117.92h-117.92z"/><path d="m691.04-.65h117.92v117.92h-117.92z"/><path d="m1036.89-.65h117.92v117.92h-117.92z"/><path d="m1382.74-.65h117.92v117.92h-117.92z"/><path d="m-.65 345.19h117.92v117.92h-117.92z"/><path d="m345.19 345.19h117.92v117.92h-117.92z"/><path d="m691.04 345.19h117.92v117.92h-117.92z"/><path d="m1036.89 345.19h117.92v117.92h-117.92z"/><path d="m1382.74 345.19h117.92v117.92h-117.92z"/><path d="m-.65 691.04h117.92v117.92h-117.92z"/><path d="m345.19 691.04h117.92v117.92h-117.92z"/><path d="m691.04 691.04h117.92v117.92h-117.92z"/><path d="m1036.89 691.04h117.92v117.92h-117.92z"/><path d="m1382.74 691.04h117.92v117.92h-117.92z"/><path d="m-.65 1036.89h117.92v117.92h-117.92z"/><path d="m345.19 1036.89h117.92v117.92h-117.92z"/><path d="m691.04 1036.89h117.92v117.92h-117.92z"/><path d="m1036.89 1036.89h117.92v117.92h-117.92z"/><path d="m1382.74 1036.89h117.92v117.92h-117.92z"/><path d="m-.65 1382.74h117.92v117.92h-117.92z"/><path d="m345.19 1382.74h117.92v117.92h-117.92z"/><path d="m691.04 1382.74h117.92v117.92h-117.92z"/><path d="m1036.89 1382.74h117.92v117.92h-117.92z"/><path d="m1382.74 1382.74h117.92v117.92h-117.92z"/></g></svg>