<svg viewBox="0 0 1500 1500" xmlns="http://www.w3.org/2000/svg"><g fill="#ff0"><path d="m59.09 7.92-59.09 102.34h118.18z"/><path d="m1095.46 110.26 59.08-102.34h-118.17z"/><path d="m750 7.92-59.09 102.34h118.18z"/><path d="m404.54 110.26 59.09-102.34h-118.17z"/><path d="m1440.91 7.92-59.09 102.34h118.18z"/><path d="m59.09 353.37-59.09 102.35h118.18z"/><path d="m1095.46 455.72 59.08-102.35h-118.17z"/><path d="m750 353.37-59.09 102.35h118.18z"/><path d="m404.54 455.72 59.09-102.35h-118.17z"/><path d="m1440.91 353.37-59.09 102.35h118.18z"/><path d="m59.09 698.83-59.09 102.34h118.18z"/><path d="m1095.46 801.17 59.08-102.34h-118.17z"/><path d="m750 698.83-59.09 102.34h118.18z"/><path d="m404.54 801.17 59.09-102.34h-118.17z"/><path d="m1440.91 698.83-59.09 102.34h118.18z"/><path d="m59.09 1044.28-59.09 102.35h118.18z"/><path d="m1095.46 1146.63 59.08-102.35h-118.17z"/><path d="m750 1044.28-59.09 102.35h118.18z"/><path d="m404.54 1146.63 59.09-102.35h-118.17z"/><path d="m1440.91 1044.28-59.09 102.35h118.18z"/><path d="m59.09 1389.74-59.09 102.34h118.18z"/><path d="m1095.46 1492.08 59.08-102.34h-118.17z"/><path d="m750 1389.74-59.09 102.34h118.18z"/><path d="m404.54 1492.08 59.09-102.34h-118.17z"/><path d="m1440.91 1389.74-59.09 102.34h118.18z"/></g></svg>