<svg viewBox="0 0 1500 1500" xmlns="http://www.w3.org/2000/svg"><g fill="#ff0"><path d="m23.65 23.65h114.1v114.1h-114.1z" transform="matrix(.70710678 -.70710678 .70710678 .70710678 -33.43 80.7)"/><path d="m358.3 23.65h114.1v114.1h-114.1z" transform="matrix(.70710678 -.70710678 .70710678 .70710678 64.59 317.33)"/><path d="m692.95 23.65h114.1v114.1h-114.1z" transform="matrix(.70710678 -.70710678 .70710678 .70710678 162.61 553.97)"/><path d="m1027.6 23.65h114.1v114.1h-114.1z" transform="matrix(.70710678 -.70710678 .70710678 .70710678 260.62 790.6)"/><path d="m1362.25 23.65h114.1v114.1h-114.1z" transform="matrix(.70710678 -.70710678 .70710678 .70710678 358.64 1027.23)"/><path d="m23.65 358.3h114.1v114.1h-114.1z" transform="matrix(.70710678 -.70710678 .70710678 .70710678 -270.06 178.72)"/><path d="m358.3 358.3h114.1v114.1h-114.1z" transform="matrix(.70710678 -.70710678 .70710678 .70710678 -172.04 415.35)"/><path d="m692.95 358.3h114.1v114.1h-114.1z" transform="matrix(.70710678 -.70710678 .70710678 .70710678 -74.03 651.98)"/><path d="m1027.6 358.3h114.1v114.1h-114.1z" transform="matrix(.70710678 -.70710678 .70710678 .70710678 23.99 888.62)"/><path d="m1362.25 358.3h114.1v114.1h-114.1z" transform="matrix(.70710678 -.70710678 .70710678 .70710678 122.01 1125.25)"/><path d="m23.65 692.95h114.1v114.1h-114.1z" transform="matrix(.70710678 -.70710678 .70710678 .70710678 -506.69 276.73)"/><path d="m358.3 692.95h114.1v114.1h-114.1z" transform="matrix(.70710678 -.70710678 .70710678 .70710678 -408.68 513.37)"/><path d="m692.95 692.95h114.1v114.1h-114.1z" transform="matrix(.70710678 -.70710678 .70710678 .70710678 -310.66 750)"/><path d="m1027.6 692.95h114.1v114.1h-114.1z" transform="matrix(.70710678 -.70710678 .70710678 .70710678 -212.64 986.63)"/><path d="m1362.25 692.95h114.1v114.1h-114.1z" transform="matrix(.70710678 -.70710678 .70710678 .70710678 -114.63 1223.27)"/><path d="m23.65 1027.6h114.1v114.1h-114.1z" transform="matrix(.70710678 -.70710678 .70710678 .70710678 -743.33 374.75)"/><path d="m358.3 1027.6h114.1v114.1h-114.1z" transform="matrix(.70710678 -.70710678 .70710678 .70710678 -645.31 611.38)"/><path d="m692.95 1027.6h114.1v114.1h-114.1z" transform="matrix(.70710678 -.70710678 .70710678 .70710678 -547.29 848.02)"/><path d="m1027.6 1027.6h114.1v114.1h-114.1z" transform="matrix(.70710678 -.70710678 .70710678 .70710678 -449.28 1084.65)"/><path d="m1362.25 1027.6h114.1v114.1h-114.1z" transform="matrix(.70710678 -.70710678 .70710678 .70710678 -351.26 1321.28)"/><path d="m23.65 1362.25h114.1v114.1h-114.1z" transform="matrix(.70710678 -.70710678 .70710678 .70710678 -979.96 472.77)"/><path d="m358.3 1362.25h114.1v114.1h-114.1z" transform="matrix(.70710678 -.70710678 .70710678 .70710678 -881.94 709.4)"/><path d="m692.95 1362.25h114.1v114.1h-114.1z" transform="matrix(.70710678 -.70710678 .70710678 .70710678 -783.93 946.03)"/><path d="m1027.6 1362.25h114.1v114.1h-114.1z" transform="matrix(.70710678 -.70710678 .70710678 .70710678 -685.91 1182.67)"/><path d="m1362.25 1362.25h114.1v114.1h-114.1z" transform="matrix(.70710678 -.70710678 .70710678 .70710678 -587.89 1419.3)"/></g></svg>