<svg viewBox="0 0 1500 1500" xmlns="http://www.w3.org/2000/svg"><g fill="#ff0"><path d="m26.87-1.02h32.7v86.32h-32.7z" transform="matrix(.70463421 -.70957074 .70957074 .70463421 -17.14 43.11)"/><path d="m183.93-1.02h32.7v86.32h-32.7z" transform="matrix(.70957074 .70463421 -.70463421 .70957074 87.87 -128.89)"/><path d="m341-1.02h32.7v86.32h-32.7z" transform="matrix(.70463421 -.70957074 .70957074 .70463421 75.63 266)"/><path d="m498.06-1.02h32.7v86.32h-32.7z" transform="matrix(.70957074 .70463421 -.70463421 .70957074 179.11 -350.24)"/><path d="m655.12-1.02h32.7v86.32h-32.7z" transform="matrix(.70463421 -.70957074 .70957074 .70463421 168.41 488.88)"/><path d="m812.18-1.02h32.7v86.32h-32.7z" transform="matrix(-.70957074 -.70463421 .70463421 -.70957074 1386.71 655.88)"/><path d="m969.25-1.02h32.7v86.32h-32.7z" transform="matrix(.70463421 -.70957074 .70957074 .70463421 261.18 711.77)"/><path d="m1126.31-1.02h32.7v86.32h-32.7z" transform="matrix(-.70957074 -.70463421 .70463421 -.70957074 1923.72 877.24)"/><path d="m1283.37-1.02h32.7v86.32h-32.7z" transform="matrix(.70463421 -.70957074 .70957074 .70463421 353.95 934.65)"/><path d="m1440.43-1.02h32.7v86.32h-32.7z" transform="matrix(.70957074 .70463421 -.70463421 .70957074 452.83 -1014.3)"/><path d="m1440.3 156.28h32.7v86.32h-32.7z" transform="matrix(-.70463421 .70957074 -.70957074 -.70463421 2624.62 -693.57)"/><path d="m1283.24 156.28h32.7v86.32h-32.7z" transform="matrix(-.70957074 -.70463421 .70463421 -.70957074 2081.16 1256.73)"/><path d="m1126.18 156.28h32.7v86.32h-32.7z" transform="matrix(-.70463421 .70957074 -.70957074 -.70463421 2089.14 -470.68)"/><path d="m969.12 156.28h32.7v86.32h-32.7z" transform="matrix(-.70957074 -.70463421 .70463421 -.70957074 1544.15 1035.38)"/><path d="m812.05 156.28h32.7v86.32h-32.7z" transform="matrix(-.70463421 .70957074 -.70957074 -.70463421 1553.66 -247.8)"/><path d="m654.99 156.28h32.7v86.32h-32.7z" transform="matrix(.70957074 .70463421 -.70463421 .70957074 335.54 -415.14)"/><path d="m497.93 156.28h32.7v86.32h-32.7z" transform="matrix(-.70463421 .70957074 -.70957074 -.70463421 1018.18 -24.91)"/><path d="m340.86 156.28h32.7v86.32h-32.7z" transform="matrix(.70957074 .70463421 -.70463421 .70957074 244.3 -193.78)"/><path d="m183.8 156.28h32.7v86.32h-32.7z" transform="matrix(-.70463421 .70957074 -.70957074 -.70463421 482.7 197.97)"/><path d="m26.74 156.28h32.7v86.32h-32.7z" transform="matrix(-.70957074 -.70463421 .70463421 -.70957074 -66.88 371.32)"/><path d="m26.87 313.59h32.7v86.32h-32.7z" transform="matrix(.70463421 -.70957074 .70957074 .70463421 -240.36 136.03)"/><path d="m183.93 313.59h32.7v86.32h-32.7z" transform="matrix(.70957074 .70463421 -.70463421 .70957074 309.56 -37.51)"/><path d="m341 313.59h32.7v86.32h-32.7z" transform="matrix(.70463421 -.70957074 .70957074 .70463421 -147.59 358.91)"/><path d="m498.06 313.59h32.7v86.32h-32.7z" transform="matrix(.70957074 .70463421 -.70463421 .70957074 400.8 -258.86)"/><path d="m655.12 313.59h32.7v86.32h-32.7z" transform="matrix(.70463421 -.70957074 .70957074 .70463421 -54.82 581.8)"/><path d="m812.18 313.59h32.7v86.32h-32.7z" transform="matrix(-.70957074 -.70463421 .70463421 -.70957074 1165.02 1193.71)"/><path d="m969.25 313.59h32.7v86.32h-32.7z" transform="matrix(.70463421 -.70957074 .70957074 .70463421 37.95 804.68)"/><path d="m1126.31 313.59h32.7v86.32h-32.7z" transform="matrix(-.70957074 -.70463421 .70463421 -.70957074 1702.03 1415.06)"/><path d="m1283.37 313.59h32.7v86.32h-32.7z" transform="matrix(.70463421 -.70957074 .70957074 .70463421 130.73 1027.57)"/><path d="m1440.43 313.59h32.7v86.32h-32.7z" transform="matrix(.70957074 .70463421 -.70463421 .70957074 674.52 -922.92)"/><path d="m1440.3 470.89h32.7v86.32h-32.7z" transform="matrix(-.70463421 .70957074 -.70957074 -.70463421 2847.84 -157.28)"/><path d="m1283.24 470.89h32.7v86.32h-32.7z" transform="matrix(-.70957074 -.70463421 .70463421 -.70957074 1859.47 1794.56)"/><path d="m1126.18 470.89h32.7v86.32h-32.7z" transform="matrix(-.70463421 .70957074 -.70957074 -.70463421 2312.36 65.61)"/><path d="m969.12 470.89h32.7v86.32h-32.7z" transform="matrix(-.70957074 -.70463421 .70463421 -.70957074 1322.46 1573.21)"/><path d="m812.05 470.89h32.7v86.32h-32.7z" transform="matrix(-.70463421 .70957074 -.70957074 -.70463421 1776.88 288.49)"/><path d="m654.99 470.89h32.7v86.32h-32.7z" transform="matrix(.70957074 .70463421 -.70463421 .70957074 557.23 -323.76)"/><path d="m497.93 470.89h32.7v86.32h-32.7z" transform="matrix(-.70463421 .70957074 -.70957074 -.70463421 1241.4 511.38)"/><path d="m340.86 470.89h32.7v86.32h-32.7z" transform="matrix(.70957074 .70463421 -.70463421 .70957074 465.99 -102.4)"/><path d="m183.8 470.89h32.7v86.32h-32.7z" transform="matrix(-.70463421 .70957074 -.70957074 -.70463421 705.93 734.26)"/><path d="m26.74 470.89h32.7v86.32h-32.7z" transform="matrix(-.70957074 -.70463421 .70463421 -.70957074 -288.57 909.15)"/><path d="m26.87 628.19h32.7v86.32h-32.7z" transform="matrix(.70463421 -.70957074 .70957074 .70463421 -463.59 228.94)"/><path d="m183.93 628.19h32.7v86.32h-32.7z" transform="matrix(.70957074 .70463421 -.70463421 .70957074 531.25 53.87)"/><path d="m341 628.19h32.7v86.32h-32.7z" transform="matrix(.70463421 -.70957074 .70957074 .70463421 -370.81 451.82)"/><path d="m498.06 628.19h32.7v86.32h-32.7z" transform="matrix(.70957074 .70463421 -.70463421 .70957074 622.49 -167.48)"/><path d="m655.12 628.19h32.7v86.32h-32.7z" transform="matrix(.70463421 -.70957074 .70957074 .70463421 -278.04 674.71)"/><path d="m812.18 628.19h32.7v86.32h-32.7z" transform="matrix(-.70957074 -.70463421 .70463421 -.70957074 943.33 1731.54)"/><path d="m969.25 628.19h32.7v86.32h-32.7z" transform="matrix(.70463421 -.70957074 .70957074 .70463421 -185.27 897.59)"/><path d="m1126.31 628.19h32.7v86.32h-32.7z" transform="matrix(-.70957074 -.70463421 .70463421 -.70957074 1480.34 1952.89)"/><path d="m1283.37 628.19h32.7v86.32h-32.7z" transform="matrix(.70463421 -.70957074 .70957074 .70463421 -92.5 1120.48)"/><path d="m1440.43 628.19h32.7v86.32h-32.7z" transform="matrix(.70957074 .70463421 -.70463421 .70957074 896.21 -831.54)"/><path d="m1440.3 785.49h32.7v86.32h-32.7z" transform="matrix(-.70463421 .70957074 -.70957074 -.70463421 3071.06 379.02)"/><path d="m1283.24 785.49h32.7v86.32h-32.7z" transform="matrix(-.70957074 -.70463421 .70463421 -.70957074 1637.78 2332.39)"/><path d="m1126.18 785.49h32.7v86.32h-32.7z" transform="matrix(-.70463421 .70957074 -.70957074 -.70463421 2535.58 601.9)"/><path d="m969.12 785.49h32.7v86.32h-32.7z" transform="matrix(-.70957074 -.70463421 .70463421 -.70957074 1100.77 2111.03)"/><path d="m812.05 785.49h32.7v86.32h-32.7z" transform="matrix(-.70463421 .70957074 -.70957074 -.70463421 2000.11 824.79)"/><path d="m654.99 785.49h32.7v86.32h-32.7z" transform="matrix(.70957074 .70463421 -.70463421 .70957074 778.92 -232.38)"/><path d="m497.93 785.49h32.7v86.32h-32.7z" transform="matrix(-.70463421 .70957074 -.70957074 -.70463421 1464.63 1047.67)"/><path d="m340.86 785.49h32.7v86.32h-32.7z" transform="matrix(.70957074 .70463421 -.70463421 .70957074 687.68 -11.03)"/><path d="m183.8 785.49h32.7v86.32h-32.7z" transform="matrix(-.70463421 .70957074 -.70957074 -.70463421 929.15 1270.56)"/><path d="m26.74 785.49h32.7v86.32h-32.7z" transform="matrix(-.70957074 -.70463421 .70463421 -.70957074 -510.26 1446.97)"/><path d="m26.87 942.79h32.7v86.32h-32.7z" transform="matrix(.70463421 -.70957074 .70957074 .70463421 -686.81 321.85)"/><path d="m183.93 942.79h32.7v86.32h-32.7z" transform="matrix(.70957074 .70463421 -.70463421 .70957074 752.94 145.25)"/><path d="m341 942.79h32.7v86.32h-32.7z" transform="matrix(.70463421 -.70957074 .70957074 .70463421 -594.04 544.74)"/><path d="m498.06 942.79h32.7v86.32h-32.7z" transform="matrix(.70957074 .70463421 -.70463421 .70957074 844.18 -76.11)"/><path d="m655.12 942.79h32.7v86.32h-32.7z" transform="matrix(.70463421 -.70957074 .70957074 .70463421 -501.26 767.62)"/><path d="m812.18 942.79h32.7v86.32h-32.7z" transform="matrix(-.70957074 -.70463421 .70463421 -.70957074 721.64 2269.36)"/><path d="m969.25 942.79h32.7v86.32h-32.7z" transform="matrix(.70463421 -.70957074 .70957074 .70463421 -408.49 990.51)"/><path d="m1126.31 942.79h32.7v86.32h-32.7z" transform="matrix(-.70957074 -.70463421 .70463421 -.70957074 1258.65 2490.71)"/><path d="m1283.37 942.79h32.7v86.32h-32.7z" transform="matrix(.70463421 -.70957074 .70957074 .70463421 -315.72 1213.39)"/><path d="m1440.43 942.79h32.7v86.32h-32.7z" transform="matrix(.70957074 .70463421 -.70463421 .70957074 1117.9 -740.16)"/><path d="m1440.3 1100.09h32.7v86.32h-32.7z" transform="matrix(-.70463421 .70957074 -.70957074 -.70463421 3294.29 915.31)"/><path d="m1283.24 1100.09h32.7v86.32h-32.7z" transform="matrix(-.70957074 -.70463421 .70463421 -.70957074 1416.09 2870.21)"/><path d="m1126.18 1100.09h32.7v86.32h-32.7z" transform="matrix(-.70463421 .70957074 -.70957074 -.70463421 2758.81 1138.19)"/><path d="m969.12 1100.09h32.7v86.32h-32.7z" transform="matrix(-.70957074 -.70463421 .70463421 -.70957074 879.08 2648.86)"/><path d="m812.05 1100.09h32.7v86.32h-32.7z" transform="matrix(-.70463421 .70957074 -.70957074 -.70463421 2223.33 1361.08)"/><path d="m654.99 1100.09h32.7v86.32h-32.7z" transform="matrix(.70957074 .70463421 -.70463421 .70957074 1000.6 -141)"/><path d="m497.93 1100.09h32.7v86.32h-32.7z" transform="matrix(-.70463421 .70957074 -.70957074 -.70463421 1687.85 1583.96)"/><path d="m340.86 1100.09h32.7v86.32h-32.7z" transform="matrix(.70957074 .70463421 -.70463421 .70957074 909.36 80.35)"/><path d="m183.8 1100.09h32.7v86.32h-32.7z" transform="matrix(-.70463421 .70957074 -.70957074 -.70463421 1152.37 1806.85)"/><path d="m26.74 1100.09h32.7v86.32h-32.7z" transform="matrix(-.70957074 -.70463421 .70463421 -.70957074 -731.95 1984.8)"/><path d="m26.87 1257.39h32.7v86.32h-32.7z" transform="matrix(.70463421 -.70957074 .70957074 .70463421 -910.03 414.77)"/><path d="m183.93 1257.39h32.7v86.32h-32.7z" transform="matrix(.70957074 .70463421 -.70463421 .70957074 974.63 236.63)"/><path d="m341 1257.39h32.7v86.32h-32.7z" transform="matrix(.70463421 -.70957074 .70957074 .70463421 -817.26 637.65)"/><path d="m498.06 1257.39h32.7v86.32h-32.7z" transform="matrix(.70957074 .70463421 -.70463421 .70957074 1065.87 15.27)"/><path d="m655.12 1257.39h32.7v86.32h-32.7z" transform="matrix(.70463421 -.70957074 .70957074 .70463421 -724.49 860.54)"/><path d="m812.18 1257.39h32.7v86.32h-32.7z" transform="matrix(-.70957074 -.70463421 .70463421 -.70957074 499.96 2807.19)"/><path d="m969.25 1257.39h32.7v86.32h-32.7z" transform="matrix(.70463421 -.70957074 .70957074 .70463421 -631.72 1083.42)"/><path d="m1126.31 1257.39h32.7v86.32h-32.7z" transform="matrix(-.70957074 -.70463421 .70463421 -.70957074 1036.97 3028.54)"/><path d="m1283.37 1257.39h32.7v86.32h-32.7z" transform="matrix(.70463421 -.70957074 .70957074 .70463421 -538.94 1306.31)"/><path d="m1440.43 1257.39h32.7v86.32h-32.7z" transform="matrix(.70957074 .70463421 -.70463421 .70957074 1339.59 -648.78)"/><path d="m1440.3 1414.69h32.7v86.32h-32.7z" transform="matrix(-.70463421 .70957074 -.70957074 -.70463421 3517.51 1451.6)"/><path d="m1283.24 1414.69h32.7v86.32h-32.7z" transform="matrix(-.70957074 -.70463421 .70463421 -.70957074 1194.4 3408.04)"/><path d="m1126.18 1414.69h32.7v86.32h-32.7z" transform="matrix(-.70463421 .70957074 -.70957074 -.70463421 2982.03 1674.48)"/><path d="m969.12 1414.69h32.7v86.32h-32.7z" transform="matrix(-.70957074 -.70463421 .70463421 -.70957074 657.39 3186.68)"/><path d="m812.05 1414.69h32.7v86.32h-32.7z" transform="matrix(-.70463421 .70957074 -.70957074 -.70463421 2446.55 1897.37)"/><path d="m654.99 1414.69h32.7v86.32h-32.7z" transform="matrix(.70957074 .70463421 -.70463421 .70957074 1222.29 -49.62)"/><path d="m497.93 1414.69h32.7v86.32h-32.7z" transform="matrix(-.70463421 .70957074 -.70957074 -.70463421 1911.07 2120.25)"/><path d="m340.86 1414.69h32.7v86.32h-32.7z" transform="matrix(.70957074 .70463421 -.70463421 .70957074 1131.05 171.73)"/><path d="m183.8 1414.69h32.7v86.32h-32.7z" transform="matrix(-.70463421 .70957074 -.70957074 -.70463421 1375.6 2343.14)"/><path d="m26.74 1414.69h32.7v86.32h-32.7z" transform="matrix(-.70957074 -.70463421 .70463421 -.70957074 -953.64 2522.63)"/></g></svg>