<svg viewBox="0 0 1500 1500" xmlns="http://www.w3.org/2000/svg"><g fill="#ff0"><path d="m113.96.22-37.91 37.91-37.92-37.91-37.91 37.91 37.91 37.92-37.91 37.91 37.91 37.91 37.92-37.91 37.91 37.91 37.91-37.91-37.91-37.91 37.91-37.92z"/><path d="m450.94.22-37.92 37.91-37.91-37.91-37.91 37.91 37.91 37.92-37.91 37.91 37.91 37.91 37.91-37.91 37.92 37.91 37.91-37.91-37.91-37.91 37.91-37.92z"/><path d="m787.91.22-37.91 37.91-37.91-37.91-37.92 37.91 37.92 37.92-37.91 37.91 37.91 37.91 37.91-37.91 37.91 37.91 37.91-37.91-37.91-37.91 37.92-37.92z"/><path d="m1124.89.22-37.91 37.91-37.91-37.91-37.92 37.91 37.92 37.92-37.92 37.91 37.92 37.91 37.91-37.91 37.91 37.91 37.91-37.91-37.91-37.91 37.91-37.92z"/><path d="m1461.87.22-37.92 37.91-37.91-37.91-37.91 37.91 37.91 37.92-37.91 37.91 37.91 37.91 37.91-37.91 37.92 37.91 37.91-37.91-37.91-37.91 37.91-37.92z"/><path d="m113.96 337.2-37.91 37.91-37.92-37.91-37.91 37.91 37.91 37.91-37.91 37.92 37.91 37.91 37.92-37.91 37.91 37.91 37.91-37.91-37.91-37.92 37.91-37.91z"/><path d="m450.94 337.2-37.92 37.91-37.91-37.91-37.91 37.91 37.91 37.91-37.91 37.92 37.91 37.91 37.91-37.91 37.92 37.91 37.91-37.91-37.91-37.92 37.91-37.91z"/><path d="m787.91 337.2-37.91 37.91-37.91-37.91-37.92 37.91 37.92 37.91-37.91 37.92 37.91 37.91 37.91-37.91 37.91 37.91 37.91-37.91-37.91-37.92 37.92-37.91z"/><path d="m1124.89 337.2-37.91 37.91-37.91-37.91-37.92 37.91 37.92 37.91-37.92 37.92 37.92 37.91 37.91-37.91 37.91 37.91 37.91-37.91-37.91-37.92 37.91-37.91z"/><path d="m1461.87 337.2-37.92 37.91-37.91-37.91-37.91 37.91 37.91 37.91-37.91 37.92 37.91 37.91 37.91-37.91 37.92 37.91 37.91-37.91-37.91-37.92 37.91-37.91z"/><path d="m113.96 674.17-37.91 37.92-37.92-37.91-37.91 37.91 37.91 37.91-37.91 37.91 37.91 37.92 37.92-37.92 37.91 37.92 37.91-37.92-37.91-37.91 37.91-37.91z"/><path d="m450.94 674.17-37.92 37.92-37.91-37.91-37.91 37.91 37.91 37.91-37.91 37.91 37.91 37.92 37.91-37.92 37.92 37.92 37.91-37.92-37.91-37.91 37.91-37.91z"/><path d="m787.91 674.17-37.91 37.92-37.91-37.91-37.92 37.91 37.92 37.91-37.91 37.91 37.91 37.92 37.91-37.92 37.91 37.92 37.91-37.92-37.91-37.91 37.92-37.91z"/><path d="m1124.89 674.17-37.91 37.92-37.91-37.91-37.92 37.91 37.92 37.91-37.92 37.91 37.92 37.92 37.91-37.92 37.91 37.92 37.91-37.92-37.91-37.91 37.91-37.91z"/><path d="m1461.87 674.17-37.92 37.92-37.91-37.91-37.91 37.91 37.91 37.91-37.91 37.91 37.91 37.92 37.91-37.92 37.92 37.92 37.91-37.92-37.91-37.91 37.91-37.91z"/><path d="m113.96 1011.15-37.91 37.92-37.92-37.92-37.91 37.92 37.91 37.91-37.91 37.91 37.91 37.91 37.92-37.91 37.91 37.91 37.91-37.91-37.91-37.91 37.91-37.91z"/><path d="m450.94 1011.15-37.92 37.92-37.91-37.92-37.91 37.92 37.91 37.91-37.91 37.91 37.91 37.91 37.91-37.91 37.92 37.91 37.91-37.91-37.91-37.91 37.91-37.91z"/><path d="m787.91 1011.15-37.91 37.92-37.91-37.92-37.92 37.92 37.92 37.91-37.91 37.91 37.91 37.91 37.91-37.91 37.91 37.91 37.91-37.91-37.91-37.91 37.92-37.91z"/><path d="m1124.89 1011.15-37.91 37.92-37.91-37.92-37.92 37.92 37.92 37.91-37.92 37.91 37.92 37.91 37.91-37.91 37.91 37.91 37.91-37.91-37.91-37.91 37.91-37.91z"/><path d="m1461.87 1011.15-37.92 37.92-37.91-37.92-37.91 37.92 37.91 37.91-37.91 37.91 37.91 37.91 37.91-37.91 37.92 37.91 37.91-37.91-37.91-37.91 37.91-37.91z"/><path d="m113.96 1348.13-37.91 37.91-37.92-37.91-37.91 37.91 37.91 37.91-37.91 37.92 37.91 37.91 37.92-37.91 37.91 37.91 37.91-37.91-37.91-37.92 37.91-37.91z"/><path d="m450.94 1348.13-37.92 37.91-37.91-37.91-37.91 37.91 37.91 37.91-37.91 37.92 37.91 37.91 37.91-37.91 37.92 37.91 37.91-37.91-37.91-37.92 37.91-37.91z"/><path d="m787.91 1348.13-37.91 37.91-37.91-37.91-37.92 37.91 37.92 37.91-37.91 37.92 37.91 37.91 37.91-37.91 37.91 37.91 37.91-37.91-37.91-37.92 37.92-37.91z"/><path d="m1124.89 1348.13-37.91 37.91-37.91-37.91-37.92 37.91 37.92 37.91-37.92 37.92 37.92 37.91 37.91-37.91 37.91 37.91 37.91-37.91-37.91-37.92 37.91-37.91z"/><path d="m1461.87 1348.13-37.92 37.91-37.91-37.91-37.91 37.91 37.91 37.91-37.91 37.92 37.91 37.91 37.91-37.91 37.92 37.91 37.91-37.91-37.91-37.92 37.91-37.91z"/></g></svg>