<svg viewBox="0 0 1080 1080" xmlns="http://www.w3.org/2000/svg"><g fill="#e9e9e9"><circle cx="20.34" cy="66.7" r="16.82"/><circle cx="31.75" cy="114.02" r="16.82"/><circle cx="43.16" cy="161.35" r="16.82"/><circle cx="54.56" cy="208.67" r="16.82"/><circle cx="65.97" cy="256" r="16.82"/><circle cx="77.38" cy="303.32" r="16.82"/><circle cx="88.79" cy="350.64" r="16.82"/><circle cx="100.2" cy="397.97" r="16.82"/><circle cx="111.61" cy="445.29" r="16.82"/><circle cx="123.02" cy="492.61" r="16.82"/><circle cx="134.43" cy="539.94" r="16.82"/><circle cx="145.84" cy="587.26" r="16.82"/><circle cx="157.24" cy="634.59" r="16.82"/><circle cx="168.65" cy="681.91" r="16.82"/><circle cx="180.06" cy="729.23" r="16.82"/><circle cx="191.47" cy="776.56" r="16.82"/><circle cx="202.88" cy="823.88" r="16.82"/><circle cx="214.29" cy="871.2" r="16.82"/><circle cx="225.7" cy="918.53" r="16.82"/><circle cx="237.11" cy="965.85" r="16.82"/><circle cx="248.51" cy="1013.18" r="16.82"/><circle cx="518.89" cy="66.7" r="16.82"/><circle cx="507.48" cy="114.02" r="16.82"/><circle cx="496.07" cy="161.35" r="16.82"/><circle cx="484.67" cy="208.67" r="16.82"/><circle cx="473.26" cy="256" r="16.82"/><circle cx="461.85" cy="303.32" r="16.82"/><circle cx="450.44" cy="350.64" r="16.82"/><circle cx="439.03" cy="397.97" r="16.82"/><circle cx="427.62" cy="445.29" r="16.82"/><circle cx="416.21" cy="492.61" r="16.82"/><circle cx="404.8" cy="539.94" r="16.82"/><circle cx="393.4" cy="587.26" r="16.82"/><circle cx="381.99" cy="634.59" r="16.82"/><circle cx="370.58" cy="681.91" r="16.82"/><circle cx="359.17" cy="729.23" r="16.82"/><circle cx="347.76" cy="776.56" r="16.82"/><circle cx="336.35" cy="823.88" r="16.82"/><circle cx="324.94" cy="871.2" r="16.82"/><circle cx="313.53" cy="918.53" r="16.82"/><circle cx="302.12" cy="965.85" r="16.82"/><circle cx="290.72" cy="1013.18" r="16.82"/><circle cx="561.11" cy="66.7" r="16.82"/><circle cx="572.52" cy="114.02" r="16.82"/><circle cx="583.93" cy="161.35" r="16.82"/><circle cx="595.33" cy="208.67" r="16.82"/><circle cx="606.74" cy="256" r="16.82"/><circle cx="618.15" cy="303.32" r="16.82"/><circle cx="629.56" cy="350.64" r="16.82"/><circle cx="640.97" cy="397.97" r="16.82"/><circle cx="652.38" cy="445.29" r="16.82"/><circle cx="663.79" cy="492.61" r="16.82"/><circle cx="675.2" cy="539.94" r="16.82"/><circle cx="686.6" cy="587.26" r="16.82"/><circle cx="698.01" cy="634.59" r="16.82"/><circle cx="709.42" cy="681.91" r="16.82"/><circle cx="720.83" cy="729.23" r="16.82"/><circle cx="732.24" cy="776.56" r="16.82"/><circle cx="743.65" cy="823.88" r="16.82"/><circle cx="755.06" cy="871.2" r="16.82"/><circle cx="766.47" cy="918.53" r="16.82"/><circle cx="777.88" cy="965.85" r="16.82"/><circle cx="789.28" cy="1013.18" r="16.82"/><circle cx="1059.66" cy="66.7" r="16.82"/><circle cx="1048.25" cy="114.02" r="16.82"/><circle cx="1036.84" cy="161.35" r="16.82"/><circle cx="1025.44" cy="208.67" r="16.82"/><circle cx="1014.03" cy="256" r="16.82"/><circle cx="1002.62" cy="303.32" r="16.82"/><circle cx="991.21" cy="350.64" r="16.82"/><circle cx="979.8" cy="397.97" r="16.82"/><circle cx="968.39" cy="445.29" r="16.82"/><circle cx="956.98" cy="492.61" r="16.82"/><circle cx="945.57" cy="539.94" r="16.82"/><circle cx="934.16" cy="587.26" r="16.82"/><circle cx="922.76" cy="634.59" r="16.82"/><circle cx="911.35" cy="681.91" r="16.82"/><circle cx="899.94" cy="729.23" r="16.82"/><circle cx="888.53" cy="776.56" r="16.82"/><circle cx="877.12" cy="823.88" r="16.82"/><circle cx="865.71" cy="871.2" r="16.82"/><circle cx="854.3" cy="918.53" r="16.82"/><circle cx="842.89" cy="965.85" r="16.82"/><circle cx="831.49" cy="1013.18" r="16.82"/></g></svg>