<svg viewBox="0 0 1080 1080" xmlns="http://www.w3.org/2000/svg"><g fill="none" stroke="#e9e9e9" stroke-miterlimit="10" stroke-width="15"><path d="m1030 50.5-245 114.69-245-115.19-245 115.19-245-115.19"/><path d="m1030 175.63-245 114.69-245-115.19-245 115.19-245-115.19"/><path d="m1030 300.77-245 114.68-245-115.18-245 115.18-245-115.18"/><path d="m1030 425.9-245 114.69-245-115.19-245 115.19-245-115.19"/><path d="m1030 551.03-245 114.69-245-115.19-245 115.19-245-115.19"/><path d="m1030 676.16-245 114.69-245-115.19-245 115.19-245-115.19"/><path d="m1030 801.3-245 114.68-245-115.18-245 115.18-245-115.18"/><path d="m1030 926.43-245 114.69-245-115.19-245 115.19-245-115.19"/></g></svg>