<svg viewBox="0 0 1080 1080" xmlns="http://www.w3.org/2000/svg"><g fill="#e9e9e9"><path d="m855.18 830.52a32.14 32.14 0 1 0 -32.18 32.14 32.13 32.13 0 0 0 32.18-32.14z"/><path d="m760.83 828.58a32.14 32.14 0 1 0 -32.14 32.14 32.13 32.13 0 0 0 32.14-32.14z"/><path d="m666.48 826.64a32.14 32.14 0 1 0 -32.13 32.14 32.13 32.13 0 0 0 32.13-32.14z"/><path d="m572.14 824.7a32.14 32.14 0 1 0 -32.14 32.14 32.14 32.14 0 0 0 32.14-32.14z"/><path d="m477.79 822.76a32.14 32.14 0 1 0 -32.14 32.13 32.14 32.14 0 0 0 32.14-32.13z"/><path d="m383.44 820.82a32.14 32.14 0 1 0 -32.13 32.18 32.14 32.14 0 0 0 32.13-32.18z"/><path d="m289.1 818.87a32.14 32.14 0 1 0 -32.1 32.13 32.13 32.13 0 0 0 32.1-32.13z"/><path d="m379.69 383.4a32.13 32.13 0 1 0 14.51 43.07 32.14 32.14 0 0 0 -14.51-43.07z"/><path d="m336 467.07a32.13 32.13 0 1 0 14.52 43.06 32.14 32.14 0 0 0 -14.52-43.06z"/><path d="m292.39 550.73a32.14 32.14 0 1 0 14.52 43.07 32.15 32.15 0 0 0 -14.52-43.07z"/><path d="m510.63 132.4a32.14 32.14 0 1 0 14.52 43.07 32.14 32.14 0 0 0 -14.52-43.07z"/><path d="m554.27 48.73a32.14 32.14 0 1 0 14.52 43.07 32.13 32.13 0 0 0 -14.52-43.07z"/><path d="m467 216.07a32.13 32.13 0 1 0 14.52 43.06 32.14 32.14 0 0 0 -14.52-43.06z"/><path d="m423.33 299.73a32.14 32.14 0 1 0 14.52 43.07 32.13 32.13 0 0 0 -14.52-43.07z"/><path d="m248.75 634.4a32.13 32.13 0 1 0 14.51 43.07 32.12 32.12 0 0 0 -14.51-43.07z"/><path d="m205.1 718.06a32.14 32.14 0 1 0 14.52 43.07 32.14 32.14 0 0 0 -14.52-43.07z"/><path d="m161.45 801.73a32.14 32.14 0 1 0 14.55 43.07 32.15 32.15 0 0 0 -14.55-43.07z"/><path d="m117.8 885.4a32.13 32.13 0 1 0 14.52 43.06 32.12 32.12 0 0 0 -14.52-43.06z"/><path d="m74.16 969.06a32.14 32.14 0 1 0 14.51 43.07 32.14 32.14 0 0 0 -14.51-43.07z"/><path d="m700.31 383.4a32.13 32.13 0 1 1 -14.51 43.07 32.14 32.14 0 0 1 14.51-43.07z"/><path d="m744 467.07a32.13 32.13 0 1 1 -14.52 43.06 32.14 32.14 0 0 1 14.52-43.06z"/><path d="m787.61 550.73a32.14 32.14 0 1 1 -14.52 43.07 32.15 32.15 0 0 1 14.52-43.07z"/><path d="m569.37 132.4a32.14 32.14 0 1 1 -14.52 43.07 32.14 32.14 0 0 1 14.52-43.07z"/><path d="m525.73 48.73a32.14 32.14 0 1 1 -14.52 43.07 32.13 32.13 0 0 1 14.52-43.07z"/><path d="m613 216.07a32.13 32.13 0 1 1 -14.52 43.06 32.14 32.14 0 0 1 14.52-43.06z"/><path d="m656.67 299.73a32.14 32.14 0 1 1 -14.52 43.07 32.13 32.13 0 0 1 14.52-43.07z"/><path d="m831.25 634.4a32.13 32.13 0 1 1 -14.51 43.07 32.12 32.12 0 0 1 14.51-43.07z"/><path d="m874.9 718.06a32.14 32.14 0 1 1 -14.52 43.07 32.14 32.14 0 0 1 14.52-43.07z"/><path d="m918.55 801.73a32.14 32.14 0 1 1 -14.55 43.07 32.15 32.15 0 0 1 14.55-43.07z"/><path d="m962.2 885.4a32.13 32.13 0 1 1 -14.52 43.06 32.12 32.12 0 0 1 14.52-43.06z"/><path d="m1005.84 969.06a32.14 32.14 0 1 1 -14.51 43.07 32.14 32.14 0 0 1 14.51-43.07z"/></g></svg>