<svg viewBox="0 0 1080 1080" xmlns="http://www.w3.org/2000/svg"><g fill="none" stroke="#e9e9e9" stroke-miterlimit="10" stroke-width="15"><path d="m907.5 50v122.5 122.5 122.5 122.5 122.5 122.5 122.5 122.5"/><path d="m172.5 50v122.5 122.5 122.5 122.5 122.5 122.5 122.5 122.5"/><path d="m50 50v122.5 122.5 122.5 122.5 122.5 122.5 122.5 122.5"/><path d="m295 1030v-142.92-142.91-142.92h81.67 81.66 81.67 81.67 81.66 81.67v142.92 142.91 142.92"/><path d="m785 50v142.92 142.91 142.92h-81.67-81.66-81.67-81.67-81.66-81.67v-142.92-142.91-142.92"/><path d="m662.5 50v163.33 142.92h-40.83-40.84-40.83-40.83-40.84-40.83v-306.25"/><path d="m417.5 1030v-163.33-142.92h40.83 40.84 40.83 40.83 40.84 40.83v306.25"/><path d="m1030 50v122.5 122.5 122.5 122.5 122.5 122.5 122.5 122.5"/></g></svg>