<svg viewBox="0 0 1080 1080" xmlns="http://www.w3.org/2000/svg"><g fill="#e9e9e9"><path d="m100.49 151a50.49 50.49 0 1 0 -50.49-50.51 50.48 50.48 0 0 0 50.49 50.51z"/><path d="m100.49 196.5a50.5 50.5 0 1 0 50.51 50.5 50.5 50.5 0 0 0 -50.51-50.5z"/><path d="m100.49 343a50.49 50.49 0 1 0 50.51 50.5 50.49 50.49 0 0 0 -50.51-50.5z"/><path d="m100.49 489.51a50.49 50.49 0 1 0 50.51 50.49 50.49 50.49 0 0 0 -50.51-50.49z"/><path d="m100.49 636a50.49 50.49 0 1 0 50.51 50.5 50.5 50.5 0 0 0 -50.51-50.5z"/><path d="m100.49 782.51a50.5 50.5 0 1 0 50.51 50.49 50.5 50.5 0 0 0 -50.51-50.49z"/><path d="m100.49 929a50.49 50.49 0 1 0 50.51 50.51 50.49 50.49 0 0 0 -50.51-50.51z"/><path d="m151 540a50.49 50.49 0 1 0 -50.49 50.49 50.48 50.48 0 0 0 50.49-50.49z"/><path d="m196.5 540a50.5 50.5 0 1 0 50.5-50.49 50.49 50.49 0 0 0 -50.5 50.49z"/><path d="m343 540a50.49 50.49 0 1 0 50.49-50.49 50.48 50.48 0 0 0 -50.49 50.49z"/><path d="m489.51 540a50.49 50.49 0 1 0 50.49-50.49 50.48 50.48 0 0 0 -50.49 50.49z"/><path d="m636 540a50.49 50.49 0 1 0 50.49-50.49 50.49 50.49 0 0 0 -50.49 50.49z"/><path d="m782.51 540a50.5 50.5 0 1 0 50.49-50.49 50.49 50.49 0 0 0 -50.49 50.49z"/><path d="m929 540a50.49 50.49 0 1 0 50.49-50.49 50.48 50.48 0 0 0 -50.49 50.49z"/><path d="m979.51 151a50.49 50.49 0 1 0 -50.51-50.51 50.49 50.49 0 0 0 50.51 50.51z"/><path d="m979.51 196.5a50.5 50.5 0 1 0 50.49 50.5 50.49 50.49 0 0 0 -50.49-50.5z"/><path d="m979.51 343a50.49 50.49 0 1 0 50.49 50.5 50.48 50.48 0 0 0 -50.49-50.5z"/><path d="m979.51 489.51a50.49 50.49 0 1 0 50.49 50.49 50.48 50.48 0 0 0 -50.49-50.49z"/><path d="m979.51 636a50.49 50.49 0 1 0 50.49 50.5 50.49 50.49 0 0 0 -50.49-50.5z"/><path d="m979.51 782.51a50.5 50.5 0 1 0 50.49 50.49 50.49 50.49 0 0 0 -50.49-50.49z"/><path d="m979.51 929a50.49 50.49 0 1 0 50.49 50.51 50.48 50.48 0 0 0 -50.49-50.51z"/></g></svg>