<svg viewBox="0 0 1080 1080" xmlns="http://www.w3.org/2000/svg"><g fill="#ff0"><path d="m508.45 115.38h.01 65.34v65.32h65.34v65.32h65.35v65.33h65.34v65.32h65.34v65.32h65.35v65.33h65.34v-65.35h-65.34v-65.32h-65.35v-65.32h-65.34v-65.33h-65.34v-65.32h-65.35v-65.32h-65.34v-65.33h-35-30.34-.01z"/><path d="m900.52 572.68v65.33h-65.35v65.32h-65.34v65.32h-65.34v65.33h-65.35v65.32h-65.34v65.33l-65.35-.07v65.35h.01v.06h65.34v-65.33h65.34v-65.32h65.35v-65.32h65.34v-65.33h65.34v-65.32h65.35v-65.32h65.34v-65.33h65.35v-65.34h-65.35v65.32z"/><path d="m50 507.34h915.86v65.32h-915.86z"/></g></svg>