<svg viewBox="0 0 1500 1500" xmlns="http://www.w3.org/2000/svg"><g fill="#ff0"><circle cx="750" cy="93.75" r="93.75"/><circle cx="750" cy="281.25" r="93.75"/><circle cx="750" cy="468.75" r="93.75"/><circle cx="750" cy="750" r="187.5"/><circle cx="1214.04" cy="285.96" r="93.75"/><circle cx="1081.46" cy="418.54" r="93.75"/><circle cx="948.87" cy="551.13" r="93.75"/><circle cx="1406.25" cy="750" r="93.75"/><circle cx="1218.75" cy="750" r="93.75"/><circle cx="1031.25" cy="750" r="93.75"/><circle cx="1214.04" cy="1214.04" r="93.75"/><circle cx="1081.46" cy="1081.46" r="93.75"/><circle cx="948.87" cy="948.87" r="93.75"/><circle cx="750" cy="1406.25" r="93.75"/><circle cx="750" cy="1218.75" r="93.75"/><circle cx="750" cy="1031.25" r="93.75"/><circle cx="285.96" cy="1214.04" r="93.75"/><circle cx="418.54" cy="1081.46" r="93.75"/><circle cx="551.13" cy="948.87" r="93.75"/><circle cx="93.75" cy="750" r="93.75"/><circle cx="281.25" cy="750" r="93.75"/><circle cx="468.75" cy="750" r="93.75"/><circle cx="285.96" cy="285.96" r="93.75"/><circle cx="418.54" cy="418.54" r="93.75"/><circle cx="551.13" cy="551.13" r="93.75"/></g></svg>