<svg viewBox="0 0 1500 1500" xmlns="http://www.w3.org/2000/svg"><path d="m750 179.41v1141.18" fill="none" stroke="#ff0" stroke-miterlimit="10" stroke-width="50"/><path d="m625.34 215.88 124.66-215.88 124.66 215.88z" fill="#ff0"/><path d="m625.34 1284.12 124.66 215.88 124.66-215.88z" fill="#ff0"/><path d="m179.41 750h1141.18" fill="none" stroke="#ff0" stroke-miterlimit="10" stroke-width="50"/><path d="m215.88 874.66-215.88-124.66 215.88-124.66z" fill="#ff0"/><path d="m1284.12 874.66 215.88-124.66-215.88-124.66z" fill="#ff0"/><path d="m346.53 346.53 806.94 806.94" fill="none" stroke="#ff0" stroke-miterlimit="10" stroke-width="50"/><path d="m284.17 460.47-64.5-240.8 240.8 64.5z" fill="#ff0"/><path d="m1039.53 1215.83 240.8 64.5-64.5-240.8z" fill="#ff0"/><path d="m346.53 1153.47 806.94-806.94" fill="none" stroke="#ff0" stroke-miterlimit="10" stroke-width="50"/><g fill="#ff0"><path d="m460.47 1215.83-240.8 64.5 64.5-240.8z"/><path d="m1215.83 460.47 64.5-240.8-240.8 64.5z"/></g></svg>