<svg viewBox="0 0 1500 1500" xmlns="http://www.w3.org/2000/svg"><g fill="#ff0"><path d="m601.49 1083.07h297.01l-7.27 14.54-141.23 282.47-142.75-285.47z"/><path d="m304.45 1195.54 105.01-315.04 210.03 210.03-12.24 4.08z"/><path d="m-.01 750 404.9-144.23 12.03-4.28v297.01l-12.03-4.28z"/><path d="m304.45 304.46 301.31 100.44 13.73 4.57-202.57 202.57-7.46 7.45-4.57-13.72z"/><path d="m601.49 416.92 4.27-12.02 144.24-404.9 142.91 401.25 5.59 15.67z"/><path d="m880.5 409.47 12.41-8.22 607.08-401.25-402.37 608.75-7.09 10.74-7.46-7.47-195.11-195.1z"/><path d="m1083.07 898.5v-297.01l14.55 7.26 282.46 141.25-282.47 141.23z"/><path d="m416.92 887.96v-275.92l195.11-195.12h275.93l195.11 195.1v275.95l-195.1 195.1h-275.95z"/><path d="m880.5 1090.53 7.47-7.46 195.1-195.1 7.46-7.47 7.08 10.73 402.38 608.77-608.76-402.39z"/></g></svg>