<svg viewBox="0 0 1500 1500" xmlns="http://www.w3.org/2000/svg"><path d="m617.61 52.55 137.87 344.12 157.65-335.52-14.01 370.44 280.49-242.38-163.48 332.71 354.83-107.34-284.67 237.46 367.81 46.25-356.64 101.15 317.2 191.86-366.95-52.66 211.74 304.29-313.81-197.36 69.67 364.11-206.4-307.94-84.45 360.97-63.32-365.27-223.96 295.41 90.73-359.43-324.76 178.77 229.08-291.46-369.39 31.23 327.82-173.09-350.16-121.72 369.88-24.78-270.38-253.62 347.99 127.8-143.85-341.66 265.92 258.29z" fill="#ff0"/></svg>