<svg viewBox="0 0 1080 1080" xmlns="http://www.w3.org/2000/svg"><g fill="#e9e9e9"><circle cx="106.4" cy="690.71" r="56.4"/><circle cx="106.4" cy="832.16" r="56.4"/><circle cx="106.4" cy="690.71" r="56.4"/><circle cx="106.4" cy="973.6" r="56.4"/><circle cx="257.11" cy="690.71" r="56.4"/><circle cx="398.55" cy="690.71" r="56.4"/><circle cx="540" cy="690.71" r="56.4"/><circle cx="681.45" cy="690.71" r="56.4"/><circle cx="822.89" cy="690.71" r="56.4"/><circle cx="106.4" cy="549.26" r="56.4"/><circle cx="214.8" cy="444.33" r="56.4"/><circle cx="323.2" cy="339.39" r="56.4"/><circle cx="431.6" cy="234.45" r="56.4"/><circle cx="540" cy="129.52" r="56.4"/><circle cx="973.6" cy="549.26" r="56.4"/><circle cx="865.2" cy="444.33" r="56.4"/><circle cx="756.8" cy="339.39" r="56.4"/><circle cx="648.4" cy="234.45" r="56.4"/><circle cx="973.6" cy="690.71" r="56.4"/><circle cx="973.6" cy="832.16" r="56.4"/><circle cx="973.6" cy="973.6" r="56.4"/></g></svg>