<svg viewBox="0 0 1080 1080" xmlns="http://www.w3.org/2000/svg"><g fill="#e9e9e9"><circle cx="1006.6" cy="1009.77" r="23.4"/><circle cx="73.4" cy="177.44" r="23.4"/><circle cx="73.4" cy="281.48" r="23.4"/><circle cx="73.4" cy="385.52" r="23.4"/><circle cx="73.4" cy="489.56" r="23.4"/><circle cx="73.4" cy="593.6" r="23.4"/><circle cx="73.4" cy="697.64" r="23.4"/><circle cx="73.4" cy="801.68" r="23.4"/><circle cx="73.4" cy="905.72" r="23.4"/><circle cx="73.4" cy="1009.77" r="23.4"/><circle cx="698.64" cy="801.68" r="23.4"/><circle cx="594.6" cy="801.68" r="23.4"/><circle cx="490.56" cy="801.68" r="23.4"/><circle cx="386.52" cy="801.68" r="23.4"/><circle cx="282.48" cy="801.68" r="23.4"/><circle cx="178.44" cy="801.68" r="23.4"/><circle cx="166.72" cy="73.4" r="23.4"/><circle cx="260.04" cy="177.44" r="23.4"/><circle cx="353.36" cy="281.48" r="23.4"/><circle cx="446.68" cy="385.52" r="23.4"/><circle cx="540" cy="489.56" r="23.4"/><circle cx="633.32" cy="593.6" r="23.4"/><circle cx="726.64" cy="697.64" r="23.4"/><circle cx="819.96" cy="801.68" r="23.4"/><circle cx="913.28" cy="905.72" r="23.4"/><circle cx="73.4" cy="73.4" r="23.4"/></g></svg>