<svg viewBox="0 0 1080 1080" xmlns="http://www.w3.org/2000/svg"><path d="m932.9 793.6a335.06 335.06 0 0 0 -155.23-88 975.32 975.32 0 0 0 178.59-283.55c48.53-118.11 73.14-243.29 73.14-372h-80c0 118.28-22.59 233.23-67.14 341.64a896.31 896.31 0 0 1 -183.65 281.44 897.84 897.84 0 0 1 -273.43 194.61 890.78 890.78 0 0 1 -294.71 78.26v-896h-80v980.4l41.7-1.78a971.57 971.57 0 0 0 366.42-88.19 975.92 975.92 0 0 0 249.15-164.66 257 257 0 0 1 244.43 254.56l80-.66a335 335 0 0 0 -99.27-236.07z" fill="#e9e9e9"/></svg>