<svg viewBox="0 0 1080 1080" xmlns="http://www.w3.org/2000/svg"><path d="m964.61 572.59v-65.35h-65.32v-65.34h-65.32v-65.35h-65.33v-65.34h-65.32v-65.34h-65.32v-65.35h-65.33v-65.34h-65.34v65.34h65.32v65.35h65.33v65.34h65.32v65.34h65.32v65.35h65.33v65.34h65.32v65.35h65.33l-.07 65.35h-65.3-.02-65.31-.02-65.3-.02-65.3-.02-65.31-.02-65.3-.02-65.3-.02-65.31-.02-65.3-.02-65.31-.01-65.31-.02-65.3-.02-65.31v-.01-65.34h65.33v-65.35h65.32v-65.34h65.32v-65.35h65.33v-65.34h65.32v-65.34h65.33v-65.35h-65.35v65.35h-65.32v65.34h-65.32v65.34h-65.33v65.35h-65.32v65.34h-65.33v65.35h-65.32v35 30.34 65.35 65.35 65.34 65.34 65.35 65.34h65.34v-65.34-65.35-65.34-65.34-65.35h65.31.02 65.3.02 65.31.01 65.31.02 65.3.02 65.31.02 65.3.02 65.3.02 65.31.02 65.3.02 65.3.02 65.31.02 65.3v65.35 65.34 65.34 65.35 65.34h65.35v-65.34-65.35-65.34-65.34-65.35-65.35h.06v-65.34z" fill="#e9e9e9"/></svg>