<svg viewBox="0 0 1080 1080" xmlns="http://www.w3.org/2000/svg"><g fill="none" stroke="#e9e9e9" stroke-miterlimit="10" stroke-width="15"><path d="m50 50v490 1.69c.94 270.62 221.07 489.24 491.69 488.31 270-.93 488.32-220.16 488.3-490v-490"/><path d="m158.89 50v490 1.31c.73 210.49 171.94 380.52 382.42 379.8 210.05-.73 379.81-171.23 379.8-381.11v-490"/><path d="m267.78 50v490 .94c.52 150.34 122.82 271.8 273.16 271.28 150.06-.52 271.29-122.31 271.28-272.22v-490"/><path d="m376.67 50v490 .56a163.33 163.33 0 0 0 326.66-.56v-490"/><path d="m485.56 50v490 .19a54.44 54.44 0 0 0 108.88-.19v-490"/></g></svg>