<svg viewBox="0 0 1080 1080" xmlns="http://www.w3.org/2000/svg"><g fill="#e9e9e9"><circle cx="66.84" cy="125.98" r="16.84"/><circle cx="125.98" cy="125.98" r="16.84"/><circle cx="185.13" cy="125.98" r="16.84"/><circle cx="244.27" cy="125.98" r="16.84"/><circle cx="303.42" cy="125.98" r="16.84"/><circle cx="362.56" cy="125.98" r="16.84"/><circle cx="421.71" cy="125.98" r="16.84"/><circle cx="480.85" cy="125.98" r="16.84"/><circle cx="540" cy="125.98" r="16.84"/><circle cx="599.15" cy="125.98" r="16.84"/><circle cx="66.84" cy="185.13" r="16.84"/><circle cx="125.98" cy="185.13" r="16.84"/><circle cx="185.13" cy="185.13" r="16.84"/><circle cx="244.27" cy="185.13" r="16.84"/><circle cx="303.42" cy="185.13" r="16.84"/><circle cx="362.56" cy="185.13" r="16.84"/><circle cx="421.71" cy="185.13" r="16.84"/><circle cx="480.85" cy="185.13" r="16.84"/><circle cx="540" cy="185.13" r="16.84"/><circle cx="66.84" cy="244.27" r="16.84"/><circle cx="125.98" cy="244.27" r="16.84"/><circle cx="185.13" cy="244.27" r="16.84"/><circle cx="244.27" cy="244.27" r="16.84"/><circle cx="303.42" cy="244.27" r="16.84"/><circle cx="362.56" cy="244.27" r="16.84"/><circle cx="421.71" cy="244.27" r="16.84"/><circle cx="480.85" cy="244.27" r="16.84"/><circle cx="540" cy="244.27" r="16.84"/><circle cx="66.84" cy="303.42" r="16.84"/><circle cx="125.98" cy="303.42" r="16.84"/><circle cx="185.13" cy="303.42" r="16.84"/><circle cx="244.27" cy="303.42" r="16.84"/><circle cx="303.42" cy="303.42" r="16.84"/><circle cx="362.56" cy="303.42" r="16.84"/><circle cx="421.71" cy="303.42" r="16.84"/><circle cx="480.85" cy="303.42" r="16.84"/><circle cx="540" cy="303.42" r="16.84"/><circle cx="66.84" cy="362.56" r="16.84"/><circle cx="125.98" cy="362.56" r="16.84"/><circle cx="185.13" cy="362.56" r="16.84"/><circle cx="244.27" cy="362.56" r="16.84"/><circle cx="303.42" cy="362.56" r="16.84"/><circle cx="362.56" cy="362.56" r="16.84"/><circle cx="421.71" cy="362.56" r="16.84"/><circle cx="480.85" cy="362.56" r="16.84"/><circle cx="540" cy="362.56" r="16.84"/><circle cx="66.84" cy="421.71" r="16.84"/><circle cx="125.98" cy="421.71" r="16.84"/><circle cx="185.13" cy="421.71" r="16.84"/><circle cx="244.27" cy="421.71" r="16.84"/><circle cx="303.42" cy="421.71" r="16.84"/><circle cx="362.56" cy="421.71" r="16.84"/><circle cx="421.71" cy="421.71" r="16.84"/><circle cx="480.85" cy="421.71" r="16.84"/><circle cx="540" cy="421.71" r="16.84"/><circle cx="66.84" cy="480.85" r="16.84"/><circle cx="125.98" cy="480.85" r="16.84"/><circle cx="185.13" cy="480.85" r="16.84"/><circle cx="244.27" cy="480.85" r="16.84"/><circle cx="303.42" cy="480.85" r="16.84"/><circle cx="362.56" cy="480.85" r="16.84"/><circle cx="421.71" cy="480.85" r="16.84"/><circle cx="480.85" cy="480.85" r="16.84"/><circle cx="540" cy="480.85" r="16.84"/><circle cx="66.84" cy="540" r="16.84"/><circle cx="125.98" cy="540" r="16.84"/><circle cx="185.13" cy="540" r="16.84"/><circle cx="244.27" cy="540" r="16.84"/><circle cx="303.42" cy="540" r="16.84"/><circle cx="362.56" cy="540" r="16.84"/><circle cx="421.71" cy="540" r="16.84"/><circle cx="480.85" cy="540" r="16.84"/><circle cx="540" cy="540" r="16.84"/><circle cx="66.84" cy="599.15" r="16.84"/><circle cx="125.98" cy="599.15" r="16.84"/><circle cx="185.13" cy="599.15" r="16.84"/><circle cx="244.27" cy="599.15" r="16.84"/><circle cx="303.42" cy="599.15" r="16.84"/><circle cx="362.56" cy="599.15" r="16.84"/><circle cx="421.71" cy="599.15" r="16.84"/><circle cx="480.85" cy="599.15" r="16.84"/><circle cx="540" cy="599.15" r="16.84"/><circle cx="70.81" cy="658.29" r="16.84"/><circle cx="125.98" cy="658.29" r="16.84"/><circle cx="185.13" cy="658.29" r="16.84"/><circle cx="244.27" cy="658.29" r="16.84"/><circle cx="303.42" cy="658.29" r="16.84"/><circle cx="362.56" cy="658.29" r="16.84"/><circle cx="421.71" cy="658.29" r="16.84"/><circle cx="480.85" cy="658.29" r="16.84"/><circle cx="540" cy="658.29" r="16.84"/><circle cx="81.82" cy="717.44" r="16.84"/><circle cx="139.09" cy="717.44" r="16.84"/><circle cx="196.36" cy="717.44" r="16.84"/><circle cx="253.64" cy="717.44" r="16.84"/><circle cx="310.91" cy="717.44" r="16.84"/><circle cx="368.18" cy="717.44" r="16.84"/><circle cx="425.45" cy="717.44" r="16.84"/><circle cx="482.73" cy="717.44" r="16.84"/><circle cx="540" cy="717.44" r="16.84"/><circle cx="101.26" cy="776.58" r="16.84"/><circle cx="163.93" cy="776.58" r="16.84"/><circle cx="226.61" cy="776.58" r="16.84"/><circle cx="289.29" cy="776.58" r="16.84"/><circle cx="351.97" cy="776.58" r="16.84"/><circle cx="414.64" cy="776.58" r="16.84"/><circle cx="477.32" cy="776.58" r="16.84"/><circle cx="540" cy="776.58" r="16.84"/><circle cx="130.13" cy="835.73" r="16.84"/><circle cx="188.68" cy="835.73" r="16.84"/><circle cx="247.24" cy="835.73" r="16.84"/><circle cx="305.79" cy="835.73" r="16.84"/><circle cx="364.34" cy="835.73" r="16.84"/><circle cx="422.89" cy="835.73" r="16.84"/><circle cx="481.45" cy="835.73" r="16.84"/><circle cx="540" cy="835.73" r="16.84"/><circle cx="170.55" cy="894.87" r="16.84"/><circle cx="232.12" cy="894.87" r="16.84"/><circle cx="293.7" cy="894.87" r="16.84"/><circle cx="355.27" cy="894.87" r="16.84"/><circle cx="416.85" cy="894.87" r="16.84"/><circle cx="478.42" cy="894.87" r="16.84"/><circle cx="540" cy="894.87" r="16.84"/><circle cx="229.98" cy="954.02" r="16.84"/><circle cx="291.98" cy="954.02" r="16.84"/><circle cx="353.99" cy="954.02" r="16.84"/><circle cx="415.99" cy="954.02" r="16.84"/><circle cx="478" cy="954.02" r="16.84"/><circle cx="540" cy="954.02" r="16.84"/><circle cx="315.59" cy="1007.16" r="16.84"/><circle cx="371.69" cy="1013.16" r="16.84"/><circle cx="427.79" cy="1013.16" r="16.84"/><circle cx="483.9" cy="1013.16" r="16.84"/><circle cx="540" cy="1013.16" r="16.84"/><circle cx="1013.16" cy="125.98" r="16.84"/><circle cx="954.02" cy="125.98" r="16.84"/><circle cx="894.87" cy="125.98" r="16.84"/><circle cx="835.73" cy="125.98" r="16.84"/><circle cx="776.58" cy="125.98" r="16.84"/><circle cx="717.44" cy="125.98" r="16.84"/><circle cx="658.29" cy="125.98" r="16.84"/><circle cx="1013.16" cy="185.13" r="16.84"/><circle cx="1013.16" cy="66.84" r="16.84"/><circle cx="1013.16" cy="125.98" r="16.84"/><circle cx="66.84" cy="66.84" r="16.84"/><circle cx="125.98" cy="66.84" r="16.84"/><circle cx="185.13" cy="66.84" r="16.84"/><circle cx="244.27" cy="66.84" r="16.84"/><circle cx="303.42" cy="66.84" r="16.84"/><circle cx="362.56" cy="66.84" r="16.84"/><circle cx="421.71" cy="66.84" r="16.84"/><circle cx="480.85" cy="66.84" r="16.84"/><circle cx="540" cy="66.84" r="16.84"/><circle cx="599.15" cy="66.84" r="16.84"/><circle cx="1013.16" cy="66.84" r="16.84"/><circle cx="954.02" cy="66.84" r="16.84"/><circle cx="894.87" cy="66.84" r="16.84"/><circle cx="835.73" cy="66.84" r="16.84"/><circle cx="776.58" cy="66.84" r="16.84"/><circle cx="717.44" cy="66.84" r="16.84"/><circle cx="658.29" cy="66.84" r="16.84"/><circle cx="954.02" cy="185.13" r="16.84"/><circle cx="894.87" cy="185.13" r="16.84"/><circle cx="835.73" cy="185.13" r="16.84"/><circle cx="776.58" cy="185.13" r="16.84"/><circle cx="717.44" cy="185.13" r="16.84"/><circle cx="658.29" cy="185.13" r="16.84"/><circle cx="599.15" cy="185.13" r="16.84"/><circle cx="1013.16" cy="244.27" r="16.84"/><circle cx="954.02" cy="244.27" r="16.84"/><circle cx="894.87" cy="244.27" r="16.84"/><circle cx="835.73" cy="244.27" r="16.84"/><circle cx="776.58" cy="244.27" r="16.84"/><circle cx="717.44" cy="244.27" r="16.84"/><circle cx="658.29" cy="244.27" r="16.84"/><circle cx="599.15" cy="244.27" r="16.84"/><circle cx="1013.16" cy="303.42" r="16.84"/><circle cx="954.02" cy="303.42" r="16.84"/><circle cx="894.87" cy="303.42" r="16.84"/><circle cx="835.73" cy="303.42" r="16.84"/><circle cx="776.58" cy="303.42" r="16.84"/><circle cx="717.44" cy="303.42" r="16.84"/><circle cx="658.29" cy="303.42" r="16.84"/><circle cx="599.15" cy="303.42" r="16.84"/><circle cx="1013.16" cy="362.56" r="16.84"/><circle cx="954.02" cy="362.56" r="16.84"/><circle cx="894.87" cy="362.56" r="16.84"/><circle cx="835.73" cy="362.56" r="16.84"/><circle cx="776.58" cy="362.56" r="16.84"/><circle cx="717.44" cy="362.56" r="16.84"/><circle cx="658.29" cy="362.56" r="16.84"/><circle cx="599.15" cy="362.56" r="16.84"/><circle cx="1013.16" cy="421.71" r="16.84"/><circle cx="954.02" cy="421.71" r="16.84"/><circle cx="894.87" cy="421.71" r="16.84"/><circle cx="835.73" cy="421.71" r="16.84"/><circle cx="776.58" cy="421.71" r="16.84"/><circle cx="717.44" cy="421.71" r="16.84"/><circle cx="658.29" cy="421.71" r="16.84"/><circle cx="599.15" cy="421.71" r="16.84"/><circle cx="1013.16" cy="480.85" r="16.84"/><circle cx="954.02" cy="480.85" r="16.84"/><circle cx="894.87" cy="480.85" r="16.84"/><circle cx="835.73" cy="480.85" r="16.84"/><circle cx="776.58" cy="480.85" r="16.84"/><circle cx="717.44" cy="480.85" r="16.84"/><circle cx="658.29" cy="480.85" r="16.84"/><circle cx="599.15" cy="480.85" r="16.84"/><circle cx="1013.16" cy="540" r="16.84"/><circle cx="954.02" cy="540" r="16.84"/><circle cx="894.87" cy="540" r="16.84"/><circle cx="835.73" cy="540" r="16.84"/><circle cx="776.58" cy="540" r="16.84"/><circle cx="717.44" cy="540" r="16.84"/><circle cx="658.29" cy="540" r="16.84"/><circle cx="599.15" cy="540" r="16.84"/><circle cx="1013.16" cy="599.15" r="16.84"/><circle cx="954.02" cy="599.15" r="16.84"/><circle cx="894.87" cy="599.15" r="16.84"/><circle cx="835.73" cy="599.15" r="16.84"/><circle cx="776.58" cy="599.15" r="16.84"/><circle cx="717.44" cy="599.15" r="16.84"/><circle cx="658.29" cy="599.15" r="16.84"/><circle cx="599.15" cy="599.15" r="16.84"/><circle cx="1009.19" cy="658.29" r="16.84"/><circle cx="954.02" cy="658.29" r="16.84"/><circle cx="894.87" cy="658.29" r="16.84"/><circle cx="835.73" cy="658.29" r="16.84"/><circle cx="776.58" cy="658.29" r="16.84"/><circle cx="717.44" cy="658.29" r="16.84"/><circle cx="658.29" cy="658.29" r="16.84"/><circle cx="599.15" cy="658.29" r="16.84"/><circle cx="998.19" cy="717.44" r="16.84"/><circle cx="940.91" cy="717.44" r="16.84"/><circle cx="883.64" cy="717.44" r="16.84"/><circle cx="826.37" cy="717.44" r="16.84"/><circle cx="769.09" cy="717.44" r="16.84"/><circle cx="711.82" cy="717.44" r="16.84"/><circle cx="654.55" cy="717.44" r="16.84"/><circle cx="597.27" cy="717.44" r="16.84"/><circle cx="978.75" cy="776.58" r="16.84"/><circle cx="916.07" cy="776.58" r="16.84"/><circle cx="853.39" cy="776.58" r="16.84"/><circle cx="790.71" cy="776.58" r="16.84"/><circle cx="728.03" cy="776.58" r="16.84"/><circle cx="665.36" cy="776.58" r="16.84"/><circle cx="602.68" cy="776.58" r="16.84"/><circle cx="949.87" cy="835.73" r="16.84"/><circle cx="891.32" cy="835.73" r="16.84"/><circle cx="832.76" cy="835.73" r="16.84"/><circle cx="774.21" cy="835.73" r="16.84"/><circle cx="715.66" cy="835.73" r="16.84"/><circle cx="657.11" cy="835.73" r="16.84"/><circle cx="598.55" cy="835.73" r="16.84"/><circle cx="909.45" cy="894.87" r="16.84"/><circle cx="847.88" cy="894.87" r="16.84"/><circle cx="786.3" cy="894.87" r="16.84"/><circle cx="724.73" cy="894.87" r="16.84"/><circle cx="663.15" cy="894.87" r="16.84"/><circle cx="601.58" cy="894.87" r="16.84"/><circle cx="850.02" cy="954.02" r="16.84"/><circle cx="788.02" cy="954.02" r="16.84"/><circle cx="726.01" cy="954.02" r="16.84"/><circle cx="664.01" cy="954.02" r="16.84"/><circle cx="602" cy="954.02" r="16.84"/><circle cx="764.41" cy="1007.16" r="16.84"/><circle cx="708.31" cy="1013.16" r="16.84"/><circle cx="652.21" cy="1013.16" r="16.84"/><circle cx="596.1" cy="1013.16" r="16.84"/></g></svg>