<svg viewBox="0 0 1080 1080" xmlns="http://www.w3.org/2000/svg"><g fill="#e9e9e9"><path d="m200.77 50h-75.38-75.39v75.39 75.38 75.38 75.39 75.38 75.39 75.38 75.39 75.38 75.39 75.38 75.39 75.38h75.39v-75.38-75.39-75.38-75.39-75.38-75.39-75.38-75.39-75.38-75.39-75.38-75.38h75.38 75.38v-75.39z"/><path d="m276.15 125.38h75.38v75.38h-75.38z"/><path d="m351.54 200.77h75.38v75.38h-75.38z"/><path d="m728.46 125.38h75.38v75.38h-75.38z"/><path d="m653.08 200.77h75.38v75.38h-75.38z"/><path d="m502.31 276.15h-75.39v75.39h75.39 75.38 75.39v-75.39h-75.39z"/><path d="m954.62 50h-.02-75.37-75.38v75.39h75.38 75.37v75.38 75.38 75.39 75.38 75.39 75.38 75.39 75.38 75.39 75.38 75.39 75.38h75.38v-75.38-75.39-75.38-75.39-75.38-75.39-75.38-75.39-75.38-75.39-75.38-75.38-75.39z"/></g></svg>