<svg id="ILLUS" xmlns="http://www.w3.org/2000/svg" viewBox="0 0 1080 1080"><defs><style>.cls-1{fill:#f27186;}.cls-2{fill:#63cae1;}.cls-3{fill:#a6ce39;}.cls-4{fill:#4b8044;}.cls-5{fill:#1285a6;}</style></defs><title>Artboard 1</title><path class="cls-1" d="M164.84,1024.14c168,33.59,350.95,25.89,455.2-26.78,78.15-39.48,180.37-139.29,166.13-235.91-12.74-86.38-92.53-183.3-193.32-272.91,0,0-52.93-74.73-106.81-143.9-98.35-126.27-222.36-16.23-243,1.35-47,40.08-117,129.1-180.18,269.12C16.45,717.92-20.59,913.63,35.65,966,72.16,1000,110.92,1013.36,164.84,1024.14Z"/><path class="cls-2" d="M389.33,397.87c-11-13.43-50.91,9.24-62.49,28.94s-11.9,39.07-.67,47.71,36,9,48.68-8.94S408.49,421.32,389.33,397.87Z"/><path class="cls-2" d="M522.06,614.09C510.29,603,452,599.89,438.82,624.54s-8.05,42.72,13.24,49.35,49.65,1.32,61.65-16.86C524.1,641.31,533.84,625.21,522.06,614.09Z"/><path class="cls-2" d="M645.48,766.7C629,760,589.19,820.61,591.42,838.18s18.32,24.06,35.18,17.22,43-33,38.47-50.23S658.05,771.83,645.48,766.7Z"/><path class="cls-2" d="M284.08,580.94c14.1,7.06,6.88,38.54-4.81,54.48S241.43,677.54,223,658.69s-16-46.08,6.55-64.65S268.25,573,284.08,580.94Z"/><path class="cls-2" d="M386.85,789.8c21.62,4.53,20.16,45.73,11.37,62.16s-26,29.94-38.25,27.1-27.24-38.16-14.21-55S375.71,787.47,386.85,789.8Z"/><path class="cls-2" d="M242.74,896.66c-3.65,15.2-38.52,14.12-59.31,11.81s-42.86-26.26-30.92-43.66,31.86-18.11,45.74-12.93S245.32,885.89,242.74,896.66Z"/><path class="cls-3" d="M749,590.62a232.78,232.78,0,0,1-27.81-12.08c-38.75-20.33-89.47-25.46-121.63-26.34-15.4-.45-26.15-14.64-23.27-29.9,13.09-73.52-11.18-143.2-25.41-207.45-19.82-89.5-8.95-284.74-8.95-284.74s78,81.35,94,141.49c28.6,107.65,19.67,171.51,12,234.09-4,32.46-21.57,84.16-21.57,84.16S633,488.4,644,486.62c-5.12,8.49-8.91,15.58-11.39,20.59C632.64,507.21,700.21,551.19,749,590.62Z"/><path class="cls-3" d="M1069.89,602.23c-51,25.72-111.76,39.66-159.57,30.45-59.14-68.74-112.18-113.51-178.73-121.34a192.53,192.53,0,0,0,60.07-33.73c23.73,4.95,79.29,15.92,122.9,42C968.15,551.58,1019.19,590.62,1069.89,602.23Z"/><path class="cls-4" d="M791.66,477.61c-40.72-8-113.88,3-147.47,8.9,22-37.65,66.07-106.47,113.24-139.42,58.09-40.46,132-61.46,132-61.46s-23.22,57.26-52.09,130.13C826.65,442.85,809.21,463.09,791.66,477.61Z"/><path class="cls-5" d="M910.32,632.68C867.85,623.8,796.88,608.43,749,590.62c-48.8-39.43-116.37-83.41-116.37-83.41,2.48-5,6.27-12.1,11.39-20.59l.16-.11c33.59-5.94,106.75-16.94,147.47-8.9a192.53,192.53,0,0,1-60.07,33.73C798.14,519.17,851.18,563.94,910.32,632.68Z"/><path class="cls-4" d="M1067.39,760.79c-133.82,18-242.88-94.69-282.05-137.22-8.94-9.68-21.77-21.24-36.33-33,47.87,17.81,161.31,42.06,161.31,42.06C947.62,674.91,994.79,731.4,1067.39,760.79Z"/></svg>