<svg viewBox="0 0 1075.81 184.95" xmlns="http://www.w3.org/2000/svg"><g fill="#6a1a44"><path d="m736.64 83.61c2.93-2.9 4.52-5.42 6.8-6.45s5.67-1.46 7.88-.54c1.52.63 2.65 4 2.59 6.14-.13 4.41-1.17 8.79-.13 14 1.77-3.07 3.26-6.34 5.35-9.19 4.93-6.71 9.37-14 15.44-19.59 8-7.29 13.21-5.24 16.72 5 1.27 3.69 5.68 8.22.42 11-6 3.19-8.31-2.86-11-6.77-.18-.27-.6-.37-2-1.19-2.13 2.79-4.6 5.57-6.55 8.65-7.46 11.8-14.72 23.71-22.15 35.52a9.55 9.55 0 0 1 -3.72 3.64c-2.43 1.07-5.76 2.66-7.61 1.79-1.7-.81-2.71-4.59-2.68-7a43.3 43.3 0 0 1 2-11.14c1.18-4.21 4.36-8.18-2-11.5-1.54-.79-1-5.41-1.44-8.07-6.7 12.23-15.94 22.16-28.9 28.87-7.76 4-14.51 9.91-22.22 14.05-11 5.91-28.28 1.47-32.42-12.16a61.66 61.66 0 0 1 -2.08-21.58c1.08-16.5 5.45-32.18 15.75-45.69 5.92-7.77 11.94-15.47 18.19-23 4.15-5 8.56-5.76 11.75-2.68 3.81 3.67 3.64 11.74-.62 15-4.72 3.64-10.08 6.52-14.55 10.43-16.8 14.62-21.24 33.92-19.46 54.77.77 9.27 8.27 13.52 17.73 11.55 18.52-3.88 30.81-15.3 39.48-31.48 5-9.36 9.15-18.56 8.4-29.57a22.13 22.13 0 0 0 -6.85-14.75c-2.67-2.72-5.25-4.5-9.16-1.61-1.16.86-3.5.18-5.3.21.64-1.78.84-3.94 2-5.28 3.46-4 8.15-3.37 12.8-2.62 3.62.57 3.47 4.19 9.85 2.51 1.58-.41 3.06 1.61 3.56 2.76 5.8 13.41 8 27.16 3.82 41.48-.23.62.04 1.36.31 4.49z"/><path d="m68.73 99.33c5.87-3.58 10.36-5.64 14-8.69 6.66-5.6 8.16-5.52 12 2.22a35.18 35.18 0 0 0 2.27 3.34c3.74-1.85 8.32-2.87 10.92-5.68 4.19-4.5 9.65-4.07 14.46-4.79 6.73-1 11.39 4.71 10.49 12.24-.61 5.08-2.54 10-3.87 15l12 5.33c-4.28 2.74-7 5.73-9.95 6-4.19.44-9.45.12-12.7-2.09-4.45-3-2.08-8-.26-12.34 1.4-3.35 2.06-7 3-10.52-4.33.61-9.55-.07-12.81 2.1-7.24 4.81-13.57 11-20.12 16.75-3.25 2.87-5.4 9.16-10.59 6.68-5.49-2.62-4.93-8.52-3-13.82a12.86 12.86 0 0 0 .25-3.29c-5.79-.46-7.9 2.45-9.36 7.36-4.07 13.67-.47 26.87 1.78 40.17.23 1.35 1.16 2.57 1.43 3.92.59 3-3.89 10.55-5.73 9.64-2.45-1.21-5.19-3.86-5.77-6.36-1.74-7.45-2.37-15.15-3.66-22.71-1-6.14-1.94-12.36-3.72-18.3-2-6.64-4-7.23-11.11-6.25-4 .56-8.26 0-12.29.64a25 25 0 0 0 -8.35 3.3c-3.62 2.1-6.74 5.11-10.48 6.93-1.69.83-5.49.49-6.32-.69a8.56 8.56 0 0 1 -.83-7.18c3.42-8 10.57-12.36 17.79-16.82 4.32-2.68 8.05-6.63 11.3-10.61 7.1-8.55 13.68-17.54 20.5-26.37 4.69-6.11 9.25-12.33 14.13-18.28 1.64-2 3.86-4.18 6.21-4.81 6-1.58 8.92 1.06 7.77 7.1-2.31 11.94-5.28 23.75-7.7 35.67-.88 4.3-1 8.75-1.68 15.21zm-34.22-1.74c7.42 6.73 14.63 4.88 21.42 4 1.69-.22 4-3.24 4.27-5.21 1.5-10.22 2.45-20.51 3.61-30.93-1.35.18-2.32 0-2.64.39-8.73 10.3-17.4 20.68-26.66 31.75z"/><path d="m307.1 109.3c-7.69 8.28-14.62 10.9-23.24 7.1-5.88-2.59-10.62-2.09-16.47 1.66s-13.6 5.57-20.75 7.1c-6 1.28-12.09.3-16-6.14-9.56 8.15-20.88 8-32.06 7.46-9.58-.43-19-1.08-28 3.27-1.31.63-4.18-.08-5.22-1.19s-.86-3.48-.82-5.29a4.81 4.81 0 0 1 1.44-2.74c14.68-15.52 19.1-35.29 23.28-55.09.51-2.41-.62-5.18-1.08-7.77-.66-3.66-2-7.31-2-11 .1-5.75 4.21-9.22 9.81-8.15 19.74 3.75 39.25 3.56 58.65-2 1.56-.44 3.43.13 6.18.3-2.69 6.7-7.79 8.24-13.41 10.11-14.17 4.74-28.34 9.7-41.89 15.87-3.37 1.54-4.42 8-6.94 13.06a37.13 37.13 0 0 0 21.19-5c1.77-1 3.68-2.58 5.52-2.56s3.85 1.48 5 2.93c.47.63-.75 3.41-1.91 4.21-8.15 5.61-16.93 10.3-26.88 11.37-5.17.55-7.51 2.93-8.93 7.1-2.35 6.91-4.56 13.86-7.3 22.25 8.93.71 17 2.39 24.8 1.73 10.86-.93 21-4.48 25.46-16 .5-1.3 1-3.36 1.89-3.65 11-3.43 16.9-15.17 28.46-17.31 5.72-1.07 11.58-1.75 17.08 2.67 6.16 5 6.78 5.66 3.75 12.71-1.13 2.64-2.69 6.41-1.62 8.36 2.08 3.78 6.16 4.63 10.92 3.44 2.87-.68 6.22.59 11.09 1.19zm-34.4-10c-3-.52-5.46-.81-7.83-1.39-1.76-.43-3.76-2.16-5.1-1.71-6.43 2.17-12 5.71-15 12.09-2.2 4.65-.35 7.58 4.62 7.59 9.71.12 19.77-7.26 23.31-16.53z"/><path d="m865.4 103.54 13.09-.05c1.51-7.46 2.85-15.24 4.74-22.88.91-3.67.8-9.11 7.51-7.48 3.86.94 6.33 2 4.44 7.11a183.19 183.19 0 0 0 -6.26 23c-.82 3.63-.31 7.54-.92 11.24-.41 2.46-1.73 4.78-2.65 7.16-2.62-1.34-5.54-2.32-7.73-4.15-1.27-1.07-1.34-3.51-2-5.54-8.45 4.15-13.42 9.37-14.62 19.16-1.33 10.91-5 21.66-8.63 32.14-1.78 5.09-5.32 9.91-9.07 13.95-9.18 9.91-22.68 10.37-34 .93-1.77-1.47-2.46-5.51-2-8.06 2.16-11.69 9.17-20.88 17.15-29.36 5.46-5.82 11.18-11.4 18.3-18.62-6 1-9.7 2-13.43 2-9.2.22-14.34-7.19-10.32-15.25a58.61 58.61 0 0 1 9.4-13.74c14.2-15.24 15.53-15.89 33.9-22.34 4.48-1.57 8.25 1.47 7.64 6.61-.43 3.74-1.8 7.37-2.5 11.1-.82 4.37-1.38 8.79-2.04 13.07zm-14.5 25c-3.64 3-7.67 5.74-10.86 9.19-7.53 8.18-15.11 16.4-21.72 25.29-2.29 3.08-5.73 9.24-.72 12 3.51 2 9.31.27 14-.3 1.5-.18 2.93-1.85 4.17-3.07 11.95-11.65 14.77-26.65 15.13-43.08zm4.21-34.94c-10-1.13-22.5 6.74-24.48 14.63-.9 3.6 1.84 6.35 5.5 4.91 8.95-3.49 16.65-8.46 18.98-19.51z"/><path d="m559.7 90.4c9.6-10.43 19.94-17.61 33.85-18.1 11.64-.4 15.41 3.62 13.23 15.14-1 5.41-3.22 10.61-4.74 15.94a56.24 56.24 0 0 0 -2.36 10.14c-.62 6.79.85 7.83 7.79 6.26 1-.23 2.06-1 3-.88 1.6.29 3.84.73 4.42 1.83s-.2 3.41-1.18 4.49c-5.51 6-17.93 6.66-23.85 1.44-4.2-3.7-4.55-15.08.58-20.31 5.45-5.56 6.3-12.08 7-19 .55-5.43-2.65-7-7.17-6-3.7.88-8.11 2-10.5 4.51-6.87 7.31-13.87 14.83-19 23.35-7.32 12.21-18.09 16.41-31.33 10.05-2.2-1.05-4.23-2.45-6.92-4-1.74 1.44-3.33 3.41-5.4 4.37-5 2.34-10.1 5.12-15.46 6.06-9.12 1.6-16.07-2.1-18.74-8.47-2.23-5.34.3-10.9 7.54-17 4.83-4 9.24-8.63 14.4-12.19a14.41 14.41 0 0 1 9.44-2c1.33.19 2.68 4.37 2.92 6.84.35 3.69-2.53 4.69-5.75 6.12-5 2.23-9.57 5.74-14 9.15-1.33 1-2.55 4.55-1.95 5.16a9.21 9.21 0 0 0 6.12 2.72c8.08-.24 14-5.63 16.4-14.06.73-2.56 1.29-5.5 3-7.35 1.25-1.39 4.85-2.42 6.2-1.62 1.87 1.1 3.08 3.94 3.71 6.26.75 2.76-.41 6.49 1.08 8.45s5.51 3.62 8 3.16 5.48-3.53 6-5.91c1.35-6.76 1.68-13.74 2.07-20.65.23-4 .11-8.32 5.26-8.74 5.3-.42 6 3.6 6 7.81-.13 2.03.14 4.04.34 7.03z"/><path d="m1024.65 118.25a45.54 45.54 0 0 1 -6.72 1.86c-3.79.59-9 2.42-11.25.72-8.85-6.63-16.37-2.18-24.61.71-11 3.86-16.54 0-18.25-11.55-1.19-8-.1-15.25 6.29-21.1 4.29-3.92 8-8.66 12.74-11.86 2.36-1.58 6.59-.76 9.94-.5 1.58.13 3 1.69 4.62 2.25 2.77 1 7.33.93 8.11 2.65a27 27 0 0 1 2.13 12.89c-.4 5.06-4 10.7.2 14.84 4.79 4.75 10.5-.31 15.84-.75 4.17-.34 3.75-3.3 4.16-6 2.45-16.14 5.09-32.25 7.37-48.41.85-6.05 3.13-12-.11-18.44-1.17-2.33 1.11-6.47 2.08-9.71 1.67-5.6 3.56-11.14 5.34-16.71.22-.66.14-1.5.53-2 2-2.56 4.16-7.19 6.15-7.13 5.17.15 5 4.81 4.27 8.78-1.74 9.23-3.7 18.42-5.38 27.67-3.73 20.47-7.44 41-10.9 61.46-.61 3.57-2.8 9 5.07 8.15.75-.08 2.31 2.43 2.62 3.91.73 3.49-6.73 15.55-9.65 14.9-3.52-.79-6.5-3.88-10.59-6.63zm-32.65-27.87c-9.54 1.57-15.69 5.36-16.87 11-.58 2.8-.58 7.12 1.1 8.58s6.11.89 8.72-.21c8.4-3.52 9.15-6.07 7.05-19.37z"/><path d="m448.73 109.44c5.09-6.32 10.2-12.61 15.26-18.94 5.83-7.31 11.5-14.74 17.45-22 6.43-7.82 13.4-15.22 19.53-23.25 3.53-4.64 6.66-8.63 13.25-9 3-.16 6.15-2.95 8.44.66 2.39 3.78 1.08 7.37-2.17 10.2-6.34 5.54-12.26 11.7-19.21 16.37-20.22 13.68-32.28 33.52-43.61 53.91-1.85 3.32-3.17 7-5.53 10-1.73 2.14-5.69 5.14-7 4.49-3-1.46-6.55-4.71-7-7.65-1-7.18-.68-14.61-.47-21.92.53-17.67 1.24-35.34 2-53a62.39 62.39 0 0 1 1.5-10.31c.7-3.34 2.69-6.43 6.45-5.12 2 .69 3.76 3.76 4.38 6.08a25.6 25.6 0 0 1 .32 9.29c-1.77 15.7-3.84 31.37-5.57 47.08-.44 4 0 8.05 0 12.08z"/><path d="m921.64 84.13c7.43-4.78 14-10.12 21.52-13.56s10.66-.84 10.38 7.08c-.29 8.31-1.42 16.59-2 24.9-.32 4.37-.28 8.77-.53 13.14-.15 2.56.32 6.41-1.08 7.33-1.81 1.2-5.71.92-7.8-.27-2.36-1.35-5.37-4.56-5.19-6.71.48-5.71 2.53-11.3 4-16.93.17-.66.76-1.24.84-1.89.55-4.29 2.59-11.65 1.22-12.34-5.38-2.7-6.48 4-8.5 6.76-6.58 8.92-12.11 18.6-17.91 28.05-1.09 1.76-1.11 4.38-2.51 5.67-1.85 1.69-4.88 3.74-6.83 3.28s-4-3.55-4.81-5.89c-.78-2.15-.42-4.89 0-7.26 1.85-9.9 3.51-19.87 6.14-29.57.85-3.11 4-7.11 6.91-7.85 5-1.3 5.88 3.54 6.15 6.06z"/><path d="m367.79 71.41c-7.05 0-12.39.44-17.61-.13-1.88-.21-4.26-2.53-4.94-4.4-.44-1.21 1.48-4.47 2.9-4.88 3.82-1.09 8.08-2 11.93-1.43 8.86 1.3 11.63-.13 13.2-8.84 1-5.46 1.51-11 2.66-16.45.64-3 1.85-6 6-6.27 4.41-.27 6.79 1.88 5.88 6.19-.65 3-2.1 5.89-3 8.88s-1.65 6-2.48 9c6.39 5.53 15.52-5.82 21.69 4.71-7 2.58-13.76 4.77-20.22 7.6-2.24 1-4.86 3.25-5.43 5.42-3 11.41-5.65 22.92-7.78 34.52-.47 2.55 1 6 2.75 8.24 2.78 3.56 4.64 6.4-.35 9.3-4.31 2.5-8.38 1.39-10.46-3.33a15.5 15.5 0 0 1 -1.31-8.08c1.43-9.95 3.36-19.83 5.07-29.74.51-3.33.95-6.72 1.5-10.31z"/><path d="m325.82 108.52-9.44 4.69 2.26 3.26c5.13-1.76 10.62-2.87 15.31-5.41 7.23-3.93 7.13-11.67-.14-15.63a22.86 22.86 0 0 0 -11.13-2.52c-5.18.17-6.68-2.69-8-6.55-1.63-4.82 2.28-6.07 5.19-7.7a57.09 57.09 0 0 1 11.36-5.28c2.25-.68 5 .36 7.57.63-.63 2.43-1.23 4.87-1.91 7.29a4.93 4.93 0 0 1 -.67 1.3c2.7 3.39 5 6.74 7.78 9.7 6.6 7.06 4.36 14.08 0 21-5.74 9.08-21.17 15.18-31.67 12.83-5.92-1.33-8.72-4.87-6.19-9.52 2-3.75 5.66-6.94 9.23-9.5 2.17-1.57 5.57-1.48 8.42-2.14z"/><path d="m800.68 93c5.5 3.76 3.18 8.5 3.11 12.79 0 1.86-.89 4.77 0 5.44 7.07 5.31 1.68 8-2.15 10.88-1.92 1.47-3.94 3.09-6.18 3.79s-6.15 1.49-7.21.34c-1.74-1.87-2.16-5.25-2.37-8-.11-1.48 1.28-3.15 2.17-4.62 4.05-6.71 8.16-13.35 12.63-20.62z"/><path d="m898.45 61.45c-2-.2-4.6.28-6-.76a8.11 8.11 0 0 1 -2.85-5.69c0-1.47 2.49-4.34 3.42-4.17 4.23.79 8.74 1.74 12.28 4 2.82 1.78.91 6-2.67 6.5a22.39 22.39 0 0 1 -4.15-.21z"/><path d="m814.78 68.81c-.34 4.58-8.42 11-11.68 9.64a6.9 6.9 0 0 1 -3.47-5.22c0-3.55 7.63-8.48 11.22-7.47 1.66.46 2.94 2.24 3.93 3.05z"/><path d="m1067.52 119.11c-2.4-2.81-5.08-4.54-5.44-6.66-.69-4.07 2-6 6.28-6.09 4.86-.09 7.5 3 7.45 6.7-.03 1.76-4.54 3.45-8.29 6.05z"/></g></svg>