<svg viewBox="0 0 1080 1080" xmlns="http://www.w3.org/2000/svg"><g fill="#e9e9e9"><path d="m772.11 514.21h51.58v51.58h-51.58z"/><path d="m823.68 462.63h51.58v51.58h-51.58z"/><path d="m875.26 411.05h51.58v51.58h-51.58z"/><path d="m772.11 101.58h51.58v51.58h-51.58z"/><path d="m823.68 153.16h51.58v51.58h-51.58z"/><path d="m875.26 204.74h51.58v51.58h-51.58z"/><path d="m926.84 359.47v51.58h51.58v-51.58-51.58-51.57h-51.58v51.57z"/><path d="m720.53 617.37h51.58v-51.58h-51.58-51.58-51.58-51.58-51.58-51.58-51.58-51.58-51.58-51.57-51.58-51.58-51.58v-51.58-51.58-51.58-51.58-51.58-51.57-51.58-51.58-51.58h51.58 51.58 51.58 51.57 51.58 51.58 51.58 51.58 51.58 51.58 51.58 51.58 51.58v-51.58h-51.58-51.58-51.58-51.58-51.58-51.58-51.58-51.58-51.58-51.57-51.58-51.58-51.58-51.58v51.58 51.58 51.58 51.58 51.57 51.58 51.58 51.58 51.58 51.58 51.58 51.58 51.58 51.58 51.57 51.58 51.58 51.58 51.58h51.58v-51.58-51.58-51.58-51.58-51.57-51.58-51.58-51.58h51.58 51.58 51.58 51.57 51.58 51.58 51.58 51.58 51.58 51.58v51.58h51.58v-51.58z"/><path d="m668.95 668.95h51.58v51.58h-51.58z"/><path d="m720.53 720.53h51.58v51.58h-51.58z"/><path d="m772.11 772.11h51.58v51.58h-51.58z"/><path d="m823.68 823.68h51.58v51.58h-51.58z"/><path d="m875.26 875.26h51.58v51.58h-51.58z"/><path d="m926.84 926.84h51.58v51.58h-51.58z"/><path d="m978.42 978.42h51.58v51.58h-51.58z"/></g></svg>