<svg viewBox="0 0 1080 1080" xmlns="http://www.w3.org/2000/svg"><g fill="#e9e9e9"><circle cx="120.74" cy="959.26" r="70.74"/><circle cx="120.74" cy="791.56" r="70.74"/><circle cx="120.74" cy="623.85" r="70.74"/><circle cx="120.74" cy="456.15" r="70.74"/><circle cx="120.74" cy="288.44" r="70.74"/><circle cx="120.74" cy="120.74" r="70.74"/><circle cx="959.26" cy="959.26" r="70.74"/><circle cx="791.56" cy="875.41" r="70.74"/><circle cx="623.85" cy="791.56" r="70.74"/><circle cx="456.15" cy="707.71" r="70.74"/><circle cx="288.44" cy="623.85" r="70.74"/><circle cx="883.11" cy="288.44" r="70.74"/><circle cx="791.56" cy="120.74" r="70.74"/><circle cx="623.85" cy="120.74" r="70.74"/><circle cx="456.15" cy="120.74" r="70.74"/><circle cx="288.44" cy="120.74" r="70.74"/><circle cx="791.56" cy="456.15" r="70.74"/><circle cx="623.85" cy="456.15" r="70.74"/><circle cx="456.15" cy="456.15" r="70.74"/><circle cx="288.44" cy="456.15" r="70.74"/></g></svg>