<svg xmlns="http://www.w3.org/2000/svg" viewBox="0 0 1754.79 214.49"><defs><style>.cls-1{fill:#fff;}</style></defs><title>Artboard 12</title><g id="_Layer_" data-name="&lt;Layer&gt;"><path class="cls-1" d="M0,4.12H55.69L98.41,131.7l43-127.58h55.39L123.45,210.37H73.66Z"/><path class="cls-1" d="M191.8,107.25C191.8,41,228,0,287.85,0c59.52,0,95.76,41,95.76,107.25s-36.24,107.24-95.76,107.24C228,214.49,191.8,173.54,191.8,107.25Zm138.48,0c0-22.69-6.48-55.69-42.43-55.69s-42.72,33-42.72,55.69,6.78,55.68,42.72,55.68S330.28,129.93,330.28,107.25Z"/><path class="cls-1" d="M440.17,55.69H382.42V4.12H551.54V55.69h-58V210.37H440.17Z"/><path class="cls-1" d="M563.91,4.12H712.7V55.69H617.24V79.85h92.22v51.56H617.24v27.4H712.7v51.56H563.91Z"/><path class="cls-1" d="M797,107.25C797,41,833.2,0,893,0c59.51,0,95.75,41,95.75,107.25S952.52,214.49,893,214.49C833.2,214.49,797,173.54,797,107.25Zm138.48,0c0-22.69-6.49-55.69-42.43-55.69s-42.72,33-42.72,55.69,6.77,55.68,42.72,55.68S935.44,129.93,935.44,107.25Z"/><path class="cls-1" d="M1008.8,107.25c0-66.89,36.83-106.66,96.64-106.66,47.73,0,81,25.34,91.63,70.42l-52.15,9.72c-4.42-15.62-15.32-29.17-39.48-29.17-36.83,0-43.31,33-43.31,55.69s6.48,55.68,43.31,55.68c25.93,0,37.42-15.61,40.07-32.7l52.15,10.6c-9.43,46-43,73.07-92.22,73.07C1045.33,213.9,1008.8,174.13,1008.8,107.25Z"/><path class="cls-1" d="M1257.46,55.69h-57.75V4.12h169.12V55.69h-58V210.37h-53.33Z"/><path class="cls-1" d="M1506.71,65.11,1446,132.88l-7.07-53.33,70.42-75.43h50.38V210.37h-53Z"/><path class="cls-1" d="M1582.72,175l32.41-40.66a71.26,71.26,0,0,0,55.1,26.22c12.08,0,31.23-3.83,31.23-16.79,0-15.32-22.39-18-50.09-18V81.61c28.29-.29,45.37-4.71,45.37-15,0-8.84-14.43-14.44-26.51-14.44-20.33,0-35.36,8-45.38,19.74l-34.47-38.3c15-22.39,47.14-33,79.85-33,52.15,0,79.84,21.51,79.84,54.51,0,18.56-6.77,37.71-36.53,45.66,28.28,7.07,41.25,24.75,41.25,50.09,0,39.78-35.06,63.05-84.56,63.05C1631,213.9,1596,199.76,1582.72,175Z"/></g></svg>