<svg xmlns="http://www.w3.org/2000/svg" viewBox="0 0 1994.91 206.24"><defs><style>.cls-1{fill:#fff;}</style></defs><title>Artboard 11</title><g id="_Layer_" data-name="&lt;Layer&gt;"><path class="cls-1" d="M0,0H53.33V154.68h93.1v51.56H0Z"/><path class="cls-1" d="M162.63,0H311.42V51.56H216V75.72h92.22v51.56H216v27.4h95.46v51.56H162.63Z"/><path class="cls-1" d="M456.67,172.36H387.14l-12.37,33.88H320.55L396.86,0h49.8L523,206.24H468.75Zm-16.79-46.85-18-49.79-18,49.79Z"/><path class="cls-1" d="M487.9,0h55.69l42.72,127.58L629.33,0h55.39L611.35,206.24H561.56Z"/><path class="cls-1" d="M695,0H843.82V51.56H748.35V75.72h92.22v51.56H748.35v27.4h95.47v51.56H695Z"/><path class="cls-1" d="M1055.06,172.36H985.52l-12.37,33.88H918.94L995.25,0H1045l76.31,206.24h-54.21Zm-16.8-46.85-18-49.79-18,49.79Z"/><path class="cls-1" d="M1206.2,0h53l45.08,108.72L1349.68,0h52.74V206.24h-53.33V126.69l-28.58,65.7H1288.4l-28.88-66.29v80.14H1206.2Z"/><path class="cls-1" d="M1551.2,172.36h-69.53l-12.38,33.88h-54.21L1491.39,0h49.79l76.31,206.24h-54.21Zm-16.79-46.85-18-49.79-18,49.79Z"/><path class="cls-1" d="M1743.3,206.24l-35.06-73.66H1682v73.66h-53.33V0h84.85c32.71,0,79.55,6.78,79.55,65.41,0,30.64-13,48.32-31.52,57.75l38.89,83.08ZM1682,83.38h26.51c19.15,0,33.59-.59,33.59-17.68,0-16.5-16.79-16.5-33.59-16.5H1682Z"/><path class="cls-1" d="M1880,125.51l-9.14,10.61v70.12h-53.33V0h53.33V69.53L1928.92,0h61l-75.42,88.39,80.43,117.85h-60.69Z"/></g></svg>