<svg xmlns="http://www.w3.org/2000/svg" viewBox="0 0 1878.82 213.31"><defs><style>.cls-1{fill:#fff;}</style></defs><title>Artboard 13</title><g id="_Layer_" data-name="&lt;Layer&gt;"><path class="cls-1" d="M129.34,106.66l65.71,103.12H135.83L97.52,149.67l-38.3,60.11H0L68.06,103.12,4.71,3.54H63.64L99.88,60.4,136.12,3.54h58.93Z"/><path class="cls-1" d="M191.21,106.66C191.21,39.78,228,0,287.85,0c47.73,0,81,25.34,91.63,70.42l-52.15,9.72C322.91,64.52,312,51,287.85,51c-36.83,0-43.31,33-43.31,55.69s6.48,55.68,43.31,55.68c25.93,0,37.42-15.61,40.07-32.7l52.15,10.61c-9.43,46-43,73.06-92.22,73.06C227.75,213.31,191.21,173.54,191.21,106.66Z"/><path class="cls-1" d="M398,3.54h53.33V79.26h63.34V3.54H568V209.78H514.71v-79H451.37v79H398Z"/><path class="cls-1" d="M712.7,175.9H643.17l-12.38,33.88H576.58L652.89,3.54h49.79L779,209.78H724.78Zm-16.8-46.85-18-49.79-18,49.79Z"/><path class="cls-1" d="M955.77,3.54V209.78H902.44l-58.93-98.7v98.7H790.18V3.54h53.33l58.93,102.23V3.54Z"/><path class="cls-1" d="M982.28,106.07C982.28,37.42,1021.47,0,1081,0c47.14,0,81.32,20,90.16,68.65L1120.76,79c-4.72-14.44-18-27.4-39.78-27.4-38.89,0-45.37,32.12-45.37,54.51,0,22.68,6.48,55.68,45.37,55.68,22.69,0,38.6-12.08,38.9-30.64H1047.4V91.34H1172V209.78h-41.54v-22.1c-9.72,16.21-26.52,25.63-54.51,25.63C1019.41,213.31,982.28,174.72,982.28,106.07Z"/><path class="cls-1" d="M1202.36,3.54h148.79V55.1h-95.46V79.26h92.22v51.56h-92.22v27.4h95.46v51.56H1202.36Z"/><path class="cls-1" d="M1389.16,183.26a30,30,0,1,1,30,30.05A30,30,0,0,1,1389.16,183.26Z"/><path class="cls-1" d="M1489.92,106.66C1489.92,39.78,1526.75,0,1586.56,0c47.73,0,81,25.34,91.63,70.42L1626,80.14C1621.62,64.52,1610.71,51,1586.56,51c-36.83,0-43.32,33-43.32,55.69s6.49,55.68,43.32,55.68c25.92,0,37.41-15.61,40.06-32.7l52.16,10.61c-9.43,46-43,73.06-92.22,73.06C1526.45,213.31,1489.92,173.54,1489.92,106.66Z"/><path class="cls-1" d="M1812.53,175.9H1743l-12.38,33.88h-54.21L1752.72,3.54h49.79l76.31,206.24h-54.21Zm-16.79-46.85-18-49.79-18,49.79Z"/></g></svg>